<?xml version="1.0" encoding="utf-8"?>
<!-- Generator: Adobe Illustrator 22.0.1, SVG Export Plug-In . SVG Version: 6.00 Build 0)  -->
<svg version="1.1" id="Layer_1" xmlns:ev="http://www.w3.org/2001/xml-events"
	 xmlns="http://www.w3.org/2000/svg" xmlns:xlink="http://www.w3.org/1999/xlink" x="0px" y="0px" viewBox="0 0 792 792"
	 style="enable-background:new 0 0 792 792;" xml:space="preserve">
<style type="text/css">
	.st0{fill:none;stroke:#000000;}
</style>
<polygon class="st0" points="396,414 425.9,455.1 396,496.2 366.1,455.1 "/>
<polygon class="st0" points="396,496.2 347.6,480.5 317.8,439.4 366.1,455.1 "/>
<polygon class="st0" points="396,496.2 396,547.1 347.6,531.4 347.6,480.5 "/>
<polygon class="st0" points="396,496.2 444.4,480.5 444.4,531.4 396,547.1 "/>
<polygon class="st0" points="396,547.1 411.7,595.4 396,643.8 380.3,595.4 "/>
<polygon class="st0" points="396,547.1 444.4,531.4 460.1,579.7 411.7,595.4 "/>
<polygon class="st0" points="396,547.1 380.3,595.4 331.9,579.7 347.6,531.4 "/>
<polygon class="st0" points="347.6,480.5 331.9,528.9 290.8,558.7 306.5,510.4 "/>
<polygon class="st0" points="347.6,480.5 306.5,510.4 258.1,526.1 299.3,496.2 "/>
<polygon class="st0" points="347.6,480.5 347.6,531.4 331.9,579.7 331.9,528.9 "/>
<polygon class="st0" points="331.9,528.9 331.9,579.7 290.8,609.6 290.8,558.7 "/>
<polygon class="st0" points="306.5,510.4 290.8,558.7 242.5,574.5 258.1,526.1 "/>
<polygon class="st0" points="290.8,558.7 290.8,609.6 242.5,625.3 242.5,574.5 "/>
<polygon class="st0" points="380.3,595.4 339.1,625.3 290.8,609.6 331.9,579.7 "/>
<polygon class="st0" points="411.7,595.4 460.1,579.7 501.2,609.6 452.9,625.3 "/>
<polygon class="st0" points="396,643.8 354.9,673.6 339.1,625.3 380.3,595.4 "/>
<polygon class="st0" points="396,643.8 411.7,595.4 452.9,625.3 437.1,673.6 "/>
<polygon class="st0" points="396,643.8 396,694.6 354.9,724.5 354.9,673.6 "/>
<polygon class="st0" points="396,643.8 437.1,673.6 437.1,724.5 396,694.6 "/>
<polygon class="st0" points="396,694.6 437.1,724.5 396,754.4 354.9,724.5 "/>
<polygon class="st0" points="242.5,625.3 290.8,609.6 339.1,625.3 290.8,641 "/>
<polygon class="st0" points="242.5,625.3 212.5,584.2 212.5,533.3 242.5,574.5 "/>
<polygon class="st0" points="242.5,625.3 212.5,666.4 182.7,625.3 212.5,584.2 "/>
<polygon class="st0" points="242.5,625.3 290.8,641 260.9,682.1 212.5,666.4 "/>
<polygon class="st0" points="212.5,666.4 260.9,682.1 260.9,733 212.5,717.3 "/>
<polygon class="st0" points="212.5,666.4 164.2,682.1 134.3,641 182.7,625.3 "/>
<polygon class="st0" points="212.5,666.4 212.5,717.3 164.2,733 164.2,682.1 "/>
<polygon class="st0" points="290.8,641 290.8,691.9 260.9,733 260.9,682.1 "/>
<polygon class="st0" points="212.5,584.2 182.7,625.3 134.3,641 164.2,599.9 "/>
<polygon class="st0" points="339.1,625.3 339.1,676.1 290.8,691.9 290.8,641 "/>
<polygon class="st0" points="212.5,533.3 212.5,584.2 164.2,599.9 164.2,549.1 "/>
<polygon class="st0" points="339.1,625.3 354.9,673.6 354.9,724.5 339.1,676.1 "/>
<polygon class="st0" points="452.9,625.3 452.9,676.1 437.1,724.5 437.1,673.6 "/>
<polygon class="st0" points="339.1,676.1 354.9,724.5 306.5,740.3 290.8,691.9 "/>
<polygon class="st0" points="452.9,676.1 501.2,691.9 485.5,740.3 437.1,724.5 "/>
<polygon class="st0" points="396,414 366.1,455.1 317.8,439.4 347.6,398.3 "/>
<polygon class="st0" points="317.8,439.4 317.8,388.5 347.6,347.4 347.6,398.3 "/>
<polygon class="st0" points="317.8,439.4 269.4,455.1 269.4,404.3 317.8,388.5 "/>
<polygon class="st0" points="317.8,439.4 347.6,480.5 299.3,496.2 269.4,455.1 "/>
<polygon class="st0" points="269.4,455.1 228.3,485 177.4,485 218.5,455.1 "/>
<polygon class="st0" points="269.4,455.1 299.3,496.2 258.1,526.1 228.3,485 "/>
<polygon class="st0" points="269.4,455.1 218.5,455.1 218.5,404.3 269.4,404.3 "/>
<polygon class="st0" points="317.8,388.5 266.9,388.5 225.8,358.7 276.7,358.7 "/>
<polygon class="st0" points="317.8,388.5 276.7,358.7 246.7,317.5 287.9,347.4 "/>
<polygon class="st0" points="317.8,388.5 269.4,404.3 218.5,404.3 266.9,388.5 "/>
<polygon class="st0" points="266.9,388.5 218.5,404.3 177.4,374.4 225.8,358.7 "/>
<polygon class="st0" points="276.7,358.7 225.8,358.7 195.9,317.5 246.7,317.5 "/>
<polygon class="st0" points="225.8,358.7 177.4,374.4 147.6,333.3 195.9,317.5 "/>
<polygon class="st0" points="218.5,455.1 177.4,425.2 177.4,374.4 218.5,404.3 "/>
<polygon class="st0" points="228.3,485 258.1,526.1 242.5,574.5 212.5,533.3 "/>
<polygon class="st0" points="177.4,485 136.3,455.1 177.4,425.2 218.5,455.1 "/>
<polygon class="st0" points="177.4,485 228.3,485 212.5,533.3 161.7,533.3 "/>
<polygon class="st0" points="177.4,485 129,500.7 87.9,470.8 136.3,455.1 "/>
<polygon class="st0" points="177.4,485 161.7,533.3 113.4,549.1 129,500.7 "/>
<polygon class="st0" points="129,500.7 113.4,549.1 72.3,519.1 87.9,470.8 "/>
<polygon class="st0" points="147.6,333.3 177.4,374.4 177.4,425.2 147.6,384.1 "/>
<polygon class="st0" points="147.6,333.3 177.4,292.1 225.8,276.4 195.9,317.5 "/>
<polygon class="st0" points="147.6,333.3 99.2,317.5 129,276.4 177.4,292.1 "/>
<polygon class="st0" points="147.6,333.3 147.6,384.1 99.2,368.4 99.2,317.5 "/>
<polygon class="st0" points="99.2,317.5 99.2,368.4 50.8,384.1 50.8,333.3 "/>
<polygon class="st0" points="99.2,317.5 69.3,276.4 99.2,235.3 129,276.4 "/>
<polygon class="st0" points="99.2,317.5 50.8,333.3 21,292.1 69.3,276.4 "/>
<polygon class="st0" points="147.6,384.1 99.2,399.8 50.8,384.1 99.2,368.4 "/>
<polygon class="st0" points="177.4,292.1 129,276.4 99.2,235.3 147.6,251 "/>
<polygon class="st0" points="177.4,425.2 129,440.9 99.2,399.8 147.6,384.1 "/>
<polygon class="st0" points="225.8,276.4 177.4,292.1 147.6,251 195.9,235.3 "/>
<polygon class="st0" points="177.4,425.2 136.3,455.1 87.9,470.8 129,440.9 "/>
<polygon class="st0" points="212.5,533.3 164.2,549.1 113.4,549.1 161.7,533.3 "/>
<polygon class="st0" points="129,440.9 87.9,470.8 58.1,429.6 99.2,399.8 "/>
<polygon class="st0" points="164.2,549.1 164.2,599.9 113.4,599.9 113.4,549.1 "/>
<polygon class="st0" points="396,414 347.6,398.3 347.6,347.4 396,363.1 "/>
<polygon class="st0" points="347.6,347.4 396,331.7 444.4,347.4 396,363.1 "/>
<polygon class="st0" points="347.6,347.4 317.8,306.3 366.1,290.6 396,331.7 "/>
<polygon class="st0" points="347.6,347.4 317.8,388.5 287.9,347.4 317.8,306.3 "/>
<polygon class="st0" points="317.8,306.3 276.7,276.4 260.9,228 302,257.9 "/>
<polygon class="st0" points="317.8,306.3 287.9,347.4 246.7,317.5 276.7,276.4 "/>
<polygon class="st0" points="317.8,306.3 302,257.9 350.4,242.2 366.1,290.6 "/>
<polygon class="st0" points="396,331.7 380.3,283.4 396,235 411.7,283.4 "/>
<polygon class="st0" points="396,331.7 411.7,283.4 441.6,242.2 425.9,290.6 "/>
<polygon class="st0" points="396,331.7 366.1,290.6 350.4,242.2 380.3,283.4 "/>
<polygon class="st0" points="380.3,283.4 350.4,242.2 366.1,193.9 396,235 "/>
<polygon class="st0" points="411.7,283.4 396,235 425.9,193.9 441.6,242.2 "/>
<polygon class="st0" points="396,235 366.1,193.9 396,152.7 425.9,193.9 "/>
<polygon class="st0" points="302,257.9 317.8,209.6 366.1,193.9 350.4,242.2 "/>
<polygon class="st0" points="276.7,276.4 246.7,317.5 195.9,317.5 225.8,276.4 "/>
<polygon class="st0" points="260.9,228 276.7,179.7 317.8,209.6 302,257.9 "/>
<polygon class="st0" points="260.9,228 276.7,276.4 225.8,276.4 210.1,228 "/>
<polygon class="st0" points="260.9,228 231.1,186.9 246.7,138.5 276.7,179.7 "/>
<polygon class="st0" points="260.9,228 210.1,228 180.2,186.9 231.1,186.9 "/>
<polygon class="st0" points="231.1,186.9 180.2,186.9 195.9,138.5 246.7,138.5 "/>
<polygon class="st0" points="396,152.7 366.1,193.9 317.8,209.6 347.6,168.5 "/>
<polygon class="st0" points="396,152.7 444.4,168.5 474.2,209.6 425.9,193.9 "/>
<polygon class="st0" points="396,152.7 396,101.9 444.4,117.6 444.4,168.5 "/>
<polygon class="st0" points="396,152.7 347.6,168.5 347.6,117.6 396,101.9 "/>
<polygon class="st0" points="396,101.9 347.6,117.6 317.8,76.5 366.1,60.8 "/>
<polygon class="st0" points="396,101.9 425.9,60.8 474.2,76.5 444.4,117.6 "/>
<polygon class="st0" points="396,101.9 366.1,60.8 396,19.6 425.9,60.8 "/>
<polygon class="st0" points="347.6,168.5 317.8,127.3 317.8,76.5 347.6,117.6 "/>
<polygon class="st0" points="444.4,168.5 444.4,117.6 474.2,76.5 474.2,127.3 "/>
<polygon class="st0" points="317.8,209.6 287.9,168.5 317.8,127.3 347.6,168.5 "/>
<polygon class="st0" points="474.2,209.6 444.4,168.5 474.2,127.3 504.1,168.5 "/>
<polygon class="st0" points="317.8,209.6 276.7,179.7 246.7,138.5 287.9,168.5 "/>
<polygon class="st0" points="225.8,276.4 195.9,235.3 180.2,186.9 210.1,228 "/>
<polygon class="st0" points="287.9,168.5 246.7,138.5 276.7,97.4 317.8,127.3 "/>
<polygon class="st0" points="195.9,235.3 147.6,251 131.8,202.6 180.2,186.9 "/>
<polygon class="st0" points="396,414 396,363.1 444.4,347.4 444.4,398.3 "/>
<polygon class="st0" points="444.4,347.4 474.2,388.5 474.2,439.4 444.4,398.3 "/>
<polygon class="st0" points="444.4,347.4 474.2,306.3 504.1,347.4 474.2,388.5 "/>
<polygon class="st0" points="444.4,347.4 396,331.7 425.9,290.6 474.2,306.3 "/>
<polygon class="st0" points="474.2,306.3 490,257.9 531.1,228 515.3,276.4 "/>
<polygon class="st0" points="474.2,306.3 425.9,290.6 441.6,242.2 490,257.9 "/>
<polygon class="st0" points="474.2,306.3 515.3,276.4 545.3,317.5 504.1,347.4 "/>
<polygon class="st0" points="474.2,388.5 515.3,358.7 566.2,358.7 525.1,388.5 "/>
<polygon class="st0" points="474.2,388.5 525.1,388.5 573.5,404.3 522.6,404.3 "/>
<polygon class="st0" points="474.2,388.5 504.1,347.4 545.3,317.5 515.3,358.7 "/>
<polygon class="st0" points="515.3,358.7 545.3,317.5 596.1,317.5 566.2,358.7 "/>
<polygon class="st0" points="525.1,388.5 566.2,358.7 614.6,374.4 573.5,404.3 "/>
<polygon class="st0" points="566.2,358.7 596.1,317.5 644.4,333.3 614.6,374.4 "/>
<polygon class="st0" points="515.3,276.4 566.2,276.4 596.1,317.5 545.3,317.5 "/>
<polygon class="st0" points="490,257.9 441.6,242.2 425.9,193.9 474.2,209.6 "/>
<polygon class="st0" points="531.1,228 581.9,228 566.2,276.4 515.3,276.4 "/>
<polygon class="st0" points="531.1,228 490,257.9 474.2,209.6 515.3,179.7 "/>
<polygon class="st0" points="531.1,228 560.9,186.9 611.8,186.9 581.9,228 "/>
<polygon class="st0" points="531.1,228 515.3,179.7 545.3,138.5 560.9,186.9 "/>
<polygon class="st0" points="560.9,186.9 545.3,138.5 596.1,138.5 611.8,186.9 "/>
<polygon class="st0" points="644.4,333.3 596.1,317.5 566.2,276.4 614.6,292.1 "/>
<polygon class="st0" points="644.4,333.3 644.4,384.1 614.6,425.2 614.6,374.4 "/>
<polygon class="st0" points="644.4,333.3 692.8,317.5 692.8,368.4 644.4,384.1 "/>
<polygon class="st0" points="644.4,333.3 614.6,292.1 663,276.4 692.8,317.5 "/>
<polygon class="st0" points="692.8,317.5 663,276.4 692.8,235.3 722.7,276.4 "/>
<polygon class="st0" points="692.8,317.5 741.2,333.3 741.2,384.1 692.8,368.4 "/>
<polygon class="st0" points="692.8,317.5 722.7,276.4 771,292.1 741.2,333.3 "/>
<polygon class="st0" points="614.6,292.1 644.4,251 692.8,235.3 663,276.4 "/>
<polygon class="st0" points="644.4,384.1 692.8,368.4 741.2,384.1 692.8,399.8 "/>
<polygon class="st0" points="566.2,276.4 596.1,235.3 644.4,251 614.6,292.1 "/>
<polygon class="st0" points="614.6,425.2 644.4,384.1 692.8,399.8 663,440.9 "/>
<polygon class="st0" points="566.2,276.4 581.9,228 611.8,186.9 596.1,235.3 "/>
<polygon class="st0" points="474.2,209.6 504.1,168.5 545.3,138.5 515.3,179.7 "/>
<polygon class="st0" points="596.1,235.3 611.8,186.9 660.2,202.6 644.4,251 "/>
<polygon class="st0" points="504.1,168.5 474.2,127.3 515.3,97.4 545.3,138.5 "/>
<polygon class="st0" points="396,414 444.4,398.3 474.2,439.4 425.9,455.1 "/>
<polygon class="st0" points="474.2,439.4 444.4,480.5 396,496.2 425.9,455.1 "/>
<polygon class="st0" points="474.2,439.4 522.6,455.1 492.7,496.2 444.4,480.5 "/>
<polygon class="st0" points="474.2,439.4 474.2,388.5 522.6,404.3 522.6,455.1 "/>
<polygon class="st0" points="522.6,455.1 573.5,455.1 614.6,485 563.7,485 "/>
<polygon class="st0" points="522.6,455.1 522.6,404.3 573.5,404.3 573.5,455.1 "/>
<polygon class="st0" points="522.6,455.1 563.7,485 533.9,526.1 492.7,496.2 "/>
<polygon class="st0" points="444.4,480.5 485.5,510.4 501.2,558.7 460.1,528.9 "/>
<polygon class="st0" points="444.4,480.5 460.1,528.9 460.1,579.7 444.4,531.4 "/>
<polygon class="st0" points="444.4,480.5 492.7,496.2 533.9,526.1 485.5,510.4 "/>
<polygon class="st0" points="485.5,510.4 533.9,526.1 549.5,574.5 501.2,558.7 "/>
<polygon class="st0" points="460.1,528.9 501.2,558.7 501.2,609.6 460.1,579.7 "/>
<polygon class="st0" points="501.2,558.7 549.5,574.5 549.5,625.3 501.2,609.6 "/>
<polygon class="st0" points="563.7,485 579.5,533.3 549.5,574.5 533.9,526.1 "/>
<polygon class="st0" points="573.5,455.1 573.5,404.3 614.6,374.4 614.6,425.2 "/>
<polygon class="st0" points="614.6,485 630.3,533.3 579.5,533.3 563.7,485 "/>
<polygon class="st0" points="614.6,485 573.5,455.1 614.6,425.2 655.7,455.1 "/>
<polygon class="st0" points="614.6,485 663,500.7 678.6,549.1 630.3,533.3 "/>
<polygon class="st0" points="614.6,485 655.7,455.1 704.1,470.8 663,500.7 "/>
<polygon class="st0" points="663,500.7 704.1,470.8 719.7,519.1 678.6,549.1 "/>
<polygon class="st0" points="549.5,625.3 549.5,574.5 579.5,533.3 579.5,584.2 "/>
<polygon class="st0" points="549.5,625.3 501.2,641 452.9,625.3 501.2,609.6 "/>
<polygon class="st0" points="549.5,625.3 579.5,666.4 531.1,682.1 501.2,641 "/>
<polygon class="st0" points="549.5,625.3 579.5,584.2 609.3,625.3 579.5,666.4 "/>
<polygon class="st0" points="579.5,666.4 609.3,625.3 657.7,641 627.8,682.1 "/>
<polygon class="st0" points="579.5,666.4 579.5,717.3 531.1,733 531.1,682.1 "/>
<polygon class="st0" points="579.5,666.4 627.8,682.1 627.8,733 579.5,717.3 "/>
<polygon class="st0" points="579.5,584.2 627.8,599.9 657.7,641 609.3,625.3 "/>
<polygon class="st0" points="501.2,641 531.1,682.1 531.1,733 501.2,691.9 "/>
<polygon class="st0" points="579.5,533.3 627.8,549.1 627.8,599.9 579.5,584.2 "/>
<polygon class="st0" points="452.9,625.3 501.2,641 501.2,691.9 452.9,676.1 "/>
<polygon class="st0" points="579.5,533.3 630.3,533.3 678.6,549.1 627.8,549.1 "/>
<polygon class="st0" points="614.6,425.2 663,440.9 704.1,470.8 655.7,455.1 "/>
<polygon class="st0" points="627.8,549.1 678.6,549.1 678.6,599.9 627.8,599.9 "/>
<polygon class="st0" points="663,440.9 692.8,399.8 733.9,429.6 704.1,470.8 "/>
</svg>
