<?xml version="1.0" encoding="utf-8"?>
<!-- Generator: Adobe Illustrator 22.0.1, SVG Export Plug-In . SVG Version: 6.00 Build 0)  -->
<svg version="1.1" id="Layer_1" xmlns:ev="http://www.w3.org/2001/xml-events"
	 xmlns="http://www.w3.org/2000/svg" xmlns:xlink="http://www.w3.org/1999/xlink" x="0px" y="0px" viewBox="0 0 792 792"
	 style="enable-background:new 0 0 792 792;" xml:space="preserve">
<style type="text/css">
	.st0{fill:none;stroke:#000000;}
</style>
<polygon class="st0" points="396,415.5 409.6,475 396,534.4 382.4,475 "/>
<polygon class="st0" points="396,415.5 382.4,475 344.4,522.7 358,463.2 "/>
<polygon class="st0" points="409.6,475 447.6,522.7 434,582.1 396,534.4 "/>
<polygon class="st0" points="382.4,475 396,534.4 358,582.1 344.4,522.7 "/>
<polygon class="st0" points="396,534.4 434,582.1 396,629.8 358,582.1 "/>
<polygon class="st0" points="447.6,522.7 474.1,577.6 460.5,637 434,582.1 "/>
<polygon class="st0" points="344.4,522.7 358,582.1 331.5,637 317.9,577.6 "/>
<polygon class="st0" points="358,582.1 396,629.8 369.6,684.7 331.5,637 "/>
<polygon class="st0" points="434,582.1 460.5,637 422.4,684.7 396,629.8 "/>
<polygon class="st0" points="474.1,577.6 487.6,637 474.1,696.5 460.5,637 "/>
<polygon class="st0" points="317.9,577.6 331.5,637 317.9,696.5 304.4,637 "/>
<polygon class="st0" points="474.1,577.6 512.1,625.3 525.7,684.7 487.6,637 "/>
<polygon class="st0" points="487.6,637 525.7,684.7 512.1,744.2 474.1,696.5 "/>
<polygon class="st0" points="304.4,637 317.9,696.5 279.9,744.2 266.3,684.7 "/>
<polygon class="st0" points="396,629.8 422.4,684.7 396,739.7 369.6,684.7 "/>
<polygon class="st0" points="525.7,684.7 580.6,711.2 567,770.7 512.1,744.2 "/>
<polygon class="st0" points="396,415.5 358,463.2 303,489.7 341,442 "/>
<polygon class="st0" points="396,415.5 341,442 280.1,442 335.1,415.5 "/>
<polygon class="st0" points="358,463.2 344.4,522.7 289.5,549.1 303,489.7 "/>
<polygon class="st0" points="341,442 303,489.7 242.1,489.7 280.1,442 "/>
<polygon class="st0" points="303,489.7 289.5,549.1 228.5,549.1 242.1,489.7 "/>
<polygon class="st0" points="344.4,522.7 317.9,577.6 263,604.1 289.5,549.1 "/>
<polygon class="st0" points="280.1,442 242.1,489.7 182.6,503.2 220.6,455.6 "/>
<polygon class="st0" points="242.1,489.7 228.5,549.1 169,562.7 182.6,503.2 "/>
<polygon class="st0" points="289.5,549.1 263,604.1 202,604.1 228.5,549.1 "/>
<polygon class="st0" points="317.9,577.6 279.9,625.3 225,651.8 263,604.1 "/>
<polygon class="st0" points="220.6,455.6 182.6,503.2 127.6,529.7 165.7,482 "/>
<polygon class="st0" points="317.9,577.6 304.4,637 266.3,684.7 279.9,625.3 "/>
<polygon class="st0" points="279.9,625.3 266.3,684.7 211.4,711.2 225,651.8 "/>
<polygon class="st0" points="165.7,482 127.6,529.7 66.7,529.7 104.7,482 "/>
<polygon class="st0" points="228.5,549.1 202,604.1 142.5,617.7 169,562.7 "/>
<polygon class="st0" points="266.3,684.7 279.9,744.2 225,770.7 211.4,711.2 "/>
<polygon class="st0" points="396,415.5 335.1,415.5 280.1,389.1 341,389.1 "/>
<polygon class="st0" points="396,415.5 341,389.1 303,341.4 358,367.9 "/>
<polygon class="st0" points="335.1,415.5 280.1,442 225.1,415.5 280.1,389.1 "/>
<polygon class="st0" points="341,389.1 280.1,389.1 242.1,341.4 303,341.4 "/>
<polygon class="st0" points="280.1,389.1 225.1,415.5 187.1,367.9 242.1,341.4 "/>
<polygon class="st0" points="280.1,442 220.6,455.6 165.7,429.1 225.1,415.5 "/>
<polygon class="st0" points="303,341.4 242.1,341.4 194.4,303.4 255.4,303.4 "/>
<polygon class="st0" points="242.1,341.4 187.1,367.9 139.5,329.8 194.4,303.4 "/>
<polygon class="st0" points="225.1,415.5 165.7,429.1 127.6,381.4 187.1,367.9 "/>
<polygon class="st0" points="220.6,455.6 159.7,455.6 104.7,429.1 165.7,429.1 "/>
<polygon class="st0" points="255.4,303.4 194.4,303.4 139.5,276.9 200.4,276.9 "/>
<polygon class="st0" points="220.6,455.6 165.7,482 104.7,482 159.7,455.6 "/>
<polygon class="st0" points="159.7,455.6 104.7,482 49.8,455.6 104.7,429.1 "/>
<polygon class="st0" points="200.4,276.9 139.5,276.9 101.4,229.2 162.4,229.2 "/>
<polygon class="st0" points="187.1,367.9 127.6,381.4 80,343.4 139.5,329.8 "/>
<polygon class="st0" points="104.7,482 66.7,529.7 11.7,503.2 49.8,455.6 "/>
<polygon class="st0" points="396,415.5 358,367.9 344.4,308.4 382.4,356 "/>
<polygon class="st0" points="396,415.5 382.4,356 396,296.6 409.6,356 "/>
<polygon class="st0" points="358,367.9 303,341.4 289.5,281.9 344.4,308.4 "/>
<polygon class="st0" points="382.4,356 344.4,308.4 358,248.9 396,296.6 "/>
<polygon class="st0" points="344.4,308.4 289.5,281.9 303,222.5 358,248.9 "/>
<polygon class="st0" points="303,341.4 255.4,303.4 241.7,243.9 289.5,281.9 "/>
<polygon class="st0" points="396,296.6 358,248.9 358,187.9 396,235.6 "/>
<polygon class="st0" points="358,248.9 303,222.5 303,161.5 358,187.9 "/>
<polygon class="st0" points="289.5,281.9 241.7,243.9 255.4,184.4 303,222.5 "/>
<polygon class="st0" points="255.4,303.4 217.3,255.7 203.8,196.3 241.7,243.9 "/>
<polygon class="st0" points="396,235.6 358,187.9 344.4,128.5 382.4,176.2 "/>
<polygon class="st0" points="255.4,303.4 200.4,276.9 162.4,229.2 217.3,255.7 "/>
<polygon class="st0" points="217.3,255.7 162.4,229.2 148.8,169.7 203.8,196.3 "/>
<polygon class="st0" points="382.4,176.2 344.4,128.5 358,69.1 396,116.7 "/>
<polygon class="st0" points="303,222.5 255.4,184.4 255.4,123.5 303,161.5 "/>
<polygon class="st0" points="162.4,229.2 101.4,229.2 87.8,169.7 148.8,169.7 "/>
<polygon class="st0" points="396,415.5 409.6,356 447.6,308.4 434,367.9 "/>
<polygon class="st0" points="396,415.5 434,367.9 489,341.4 451,389.1 "/>
<polygon class="st0" points="409.6,356 396,296.6 434,248.9 447.6,308.4 "/>
<polygon class="st0" points="434,367.9 447.6,308.4 502.5,281.9 489,341.4 "/>
<polygon class="st0" points="447.6,308.4 434,248.9 489,222.5 502.5,281.9 "/>
<polygon class="st0" points="396,296.6 396,235.6 434,187.9 434,248.9 "/>
<polygon class="st0" points="489,341.4 502.5,281.9 550.3,243.9 536.6,303.4 "/>
<polygon class="st0" points="502.5,281.9 489,222.5 536.6,184.4 550.3,243.9 "/>
<polygon class="st0" points="434,248.9 434,187.9 489,161.5 489,222.5 "/>
<polygon class="st0" points="396,235.6 409.6,176.2 447.6,128.5 434,187.9 "/>
<polygon class="st0" points="536.6,303.4 550.3,243.9 588.2,196.3 574.7,255.7 "/>
<polygon class="st0" points="396,235.6 382.4,176.2 396,116.7 409.6,176.2 "/>
<polygon class="st0" points="409.6,176.2 396,116.7 434,69.1 447.6,128.5 "/>
<polygon class="st0" points="574.7,255.7 588.2,196.3 643.2,169.7 629.6,229.2 "/>
<polygon class="st0" points="489,222.5 489,161.5 536.6,123.5 536.6,184.4 "/>
<polygon class="st0" points="396,116.7 358,69.1 396,21.3 434,69.1 "/>
<polygon class="st0" points="396,415.5 451,389.1 511.9,389.1 456.9,415.5 "/>
<polygon class="st0" points="396,415.5 456.9,415.5 511.9,442 451,442 "/>
<polygon class="st0" points="451,389.1 489,341.4 549.9,341.4 511.9,389.1 "/>
<polygon class="st0" points="456.9,415.5 511.9,389.1 566.9,415.5 511.9,442 "/>
<polygon class="st0" points="511.9,389.1 549.9,341.4 604.9,367.9 566.9,415.5 "/>
<polygon class="st0" points="489,341.4 536.6,303.4 597.6,303.4 549.9,341.4 "/>
<polygon class="st0" points="511.9,442 566.9,415.5 626.3,429.1 571.4,455.6 "/>
<polygon class="st0" points="566.9,415.5 604.9,367.9 664.4,381.4 626.3,429.1 "/>
<polygon class="st0" points="549.9,341.4 597.6,303.4 652.5,329.8 604.9,367.9 "/>
<polygon class="st0" points="536.6,303.4 591.6,276.9 652.5,276.9 597.6,303.4 "/>
<polygon class="st0" points="571.4,455.6 626.3,429.1 687.3,429.1 632.3,455.6 "/>
<polygon class="st0" points="536.6,303.4 574.7,255.7 629.6,229.2 591.6,276.9 "/>
<polygon class="st0" points="591.6,276.9 629.6,229.2 690.6,229.2 652.5,276.9 "/>
<polygon class="st0" points="632.3,455.6 687.3,429.1 742.2,455.6 687.3,482 "/>
<polygon class="st0" points="604.9,367.9 652.5,329.8 712,343.4 664.4,381.4 "/>
<polygon class="st0" points="629.6,229.2 643.2,169.7 704.2,169.7 690.6,229.2 "/>
<polygon class="st0" points="396,415.5 451,442 489,489.7 434,463.2 "/>
<polygon class="st0" points="396,415.5 434,463.2 447.6,522.7 409.6,475 "/>
<polygon class="st0" points="451,442 511.9,442 549.9,489.7 489,489.7 "/>
<polygon class="st0" points="434,463.2 489,489.7 502.5,549.1 447.6,522.7 "/>
<polygon class="st0" points="489,489.7 549.9,489.7 563.5,549.1 502.5,549.1 "/>
<polygon class="st0" points="511.9,442 571.4,455.6 609.4,503.2 549.9,489.7 "/>
<polygon class="st0" points="447.6,522.7 502.5,549.1 529,604.1 474.1,577.6 "/>
<polygon class="st0" points="502.5,549.1 563.5,549.1 590,604.1 529,604.1 "/>
<polygon class="st0" points="549.9,489.7 609.4,503.2 623,562.7 563.5,549.1 "/>
<polygon class="st0" points="571.4,455.6 626.3,482 664.4,529.7 609.4,503.2 "/>
<polygon class="st0" points="474.1,577.6 529,604.1 567,651.8 512.1,625.3 "/>
<polygon class="st0" points="571.4,455.6 632.3,455.6 687.3,482 626.3,482 "/>
<polygon class="st0" points="626.3,482 687.3,482 725.3,529.7 664.4,529.7 "/>
<polygon class="st0" points="512.1,625.3 567,651.8 580.6,711.2 525.7,684.7 "/>
<polygon class="st0" points="563.5,549.1 623,562.7 649.5,617.7 590,604.1 "/>
<polygon class="st0" points="687.3,482 742.2,455.6 780.3,503.2 725.3,529.7 "/>
</svg>
