<?xml version="1.0" encoding="utf-8"?>
<!-- Generator: Adobe Illustrator 22.0.1, SVG Export Plug-In . SVG Version: 6.00 Build 0)  -->
<svg version="1.1" id="Layer_1" xmlns:ev="http://www.w3.org/2001/xml-events"
	 xmlns="http://www.w3.org/2000/svg" xmlns:xlink="http://www.w3.org/1999/xlink" x="0px" y="0px" viewBox="0 0 792 792"
	 style="enable-background:new 0 0 792 792;" xml:space="preserve">
<style type="text/css">
	.st0{fill:none;stroke:#000000;}
</style>
<polygon class="st0" points="400.8,384 416.9,444.2 400.8,504.4 384.7,444.2 "/>
<polygon class="st0" points="400.8,384 384.7,444.2 340.6,488.2 356.7,428 "/>
<polygon class="st0" points="416.9,444.2 461,488.2 444.8,548.5 400.8,504.4 "/>
<polygon class="st0" points="384.7,444.2 400.8,504.4 356.7,548.5 340.6,488.2 "/>
<polygon class="st0" points="400.8,504.4 444.8,548.5 444.8,610.7 400.8,566.7 "/>
<polygon class="st0" points="400.8,504.4 400.8,566.7 356.7,610.7 356.7,548.5 "/>
<polygon class="st0" points="461,488.2 461,550.6 444.8,610.7 444.8,548.5 "/>
<polygon class="st0" points="340.6,488.2 356.7,548.5 356.7,610.7 340.6,550.6 "/>
<polygon class="st0" points="461,488.2 514.9,519.4 514.9,581.7 461,550.6 "/>
<polygon class="st0" points="461,550.6 484.8,608.1 468.7,668.3 444.8,610.7 "/>
<polygon class="st0" points="514.9,519.4 575.1,535.5 613,585 552.9,568.9 "/>
<polygon class="st0" points="461,550.6 514.9,581.7 538.8,639.3 484.8,608.1 "/>
<polygon class="st0" points="514.9,519.4 552.9,568.9 552.9,631.1 514.9,581.7 "/>
<polygon class="st0" points="400.8,566.7 444.8,610.7 400.8,654.8 356.7,610.7 "/>
<polygon class="st0" points="514.9,581.7 552.9,631.1 576.7,688.7 538.8,639.3 "/>
<polygon class="st0" points="552.9,568.9 576.7,626.4 576.7,688.7 552.9,631.1 "/>
<polygon class="st0" points="484.8,608.1 538.8,639.3 576.7,688.7 522.7,657.5 "/>
<polygon class="st0" points="553.2,568.7 613.3,585.2 636.8,642.9 576.7,626.4 "/>
<polygon class="st0" points="484.4,608.5 522.7,657.5 507.1,717.9 468.8,668.8 "/>
<polygon class="st0" points="400.8,384 356.7,428 296.6,444.2 340.6,400.1 "/>
<polygon class="st0" points="400.8,384 340.6,400.1 280.4,384 340.6,367.9 "/>
<polygon class="st0" points="356.7,428 340.6,488.2 280.4,504.4 296.6,444.2 "/>
<polygon class="st0" points="340.6,400.1 296.6,444.2 236.3,428 280.4,384 "/>
<polygon class="st0" points="296.6,444.2 280.4,504.4 226.5,535.5 242.6,475.3 "/>
<polygon class="st0" points="296.6,444.2 242.6,475.3 182.3,459.2 236.3,428 "/>
<polygon class="st0" points="340.6,488.2 286.6,519.4 226.5,535.5 280.4,504.4 "/>
<polygon class="st0" points="280.4,384 236.3,428 182.3,459.2 226.5,415.2 "/>
<polygon class="st0" points="340.6,488.2 340.6,550.6 286.6,581.7 286.6,519.4 "/>
<polygon class="st0" points="286.6,519.4 248.7,568.9 188.5,585 226.5,535.5 "/>
<polygon class="st0" points="340.6,550.6 356.7,610.7 332.9,668.3 316.8,608.1 "/>
<polygon class="st0" points="286.6,519.4 286.6,581.7 248.7,631.1 248.7,568.9 "/>
<polygon class="st0" points="340.6,550.6 316.8,608.1 262.8,639.3 286.6,581.7 "/>
<polygon class="st0" points="242.6,475.3 226.5,535.5 166.2,519.4 182.3,459.2 "/>
<polygon class="st0" points="286.6,581.7 262.8,639.3 224.9,688.7 248.7,631.1 "/>
<polygon class="st0" points="316.8,608.1 278.8,657.5 224.9,688.7 262.8,639.3 "/>
<polygon class="st0" points="248.7,568.9 248.7,631.1 224.9,688.7 224.9,626.4 "/>
<polygon class="st0" points="317,608.3 332.8,668.7 294.6,717.8 278.8,657.5 "/>
<polygon class="st0" points="248.2,568.7 224.9,626.4 164.8,643 188.1,585.3 "/>
<polygon class="st0" points="400.8,384 340.6,367.9 296.6,323.8 356.7,339.9 "/>
<polygon class="st0" points="400.8,384 356.7,339.9 340.6,279.8 384.7,323.8 "/>
<polygon class="st0" points="340.6,367.9 280.4,384 236.3,339.9 296.6,323.8 "/>
<polygon class="st0" points="356.7,339.9 296.6,323.8 280.4,263.6 340.6,279.8 "/>
<polygon class="st0" points="296.6,323.8 236.3,339.9 182.3,308.8 242.6,292.6 "/>
<polygon class="st0" points="296.6,323.8 242.6,292.6 226.5,232.5 280.4,263.6 "/>
<polygon class="st0" points="280.4,384 226.5,352.8 182.3,308.8 236.3,339.9 "/>
<polygon class="st0" points="340.6,279.8 280.4,263.6 226.5,232.5 286.6,248.6 "/>
<polygon class="st0" points="280.4,384 226.5,415.2 172.5,384 226.5,352.8 "/>
<polygon class="st0" points="226.5,352.8 164.7,344.7 120.6,300.7 182.3,308.8 "/>
<polygon class="st0" points="226.5,415.2 182.3,459.2 120.6,467.3 164.7,423.3 "/>
<polygon class="st0" points="226.5,352.8 172.5,384 110.7,375.8 164.7,344.7 "/>
<polygon class="st0" points="226.5,415.2 164.7,423.3 110.7,392.2 172.5,384 "/>
<polygon class="st0" points="242.6,292.6 182.3,308.8 166.2,248.6 226.5,232.5 "/>
<polygon class="st0" points="172.5,384 110.7,392.2 48.9,384 110.7,375.8 "/>
<polygon class="st0" points="164.7,423.3 102.9,415.2 48.9,384 110.7,392.2 "/>
<polygon class="st0" points="164.7,344.7 110.7,375.8 48.9,384 102.9,352.8 "/>
<polygon class="st0" points="164.6,423.7 120.3,467.5 58.6,458.9 102.9,415.2 "/>
<polygon class="st0" points="164.6,344.2 102.9,352.8 58.4,309.2 120.1,300.5 "/>
<polygon class="st0" points="400.8,384 384.7,323.8 400.8,263.6 416.9,323.8 "/>
<polygon class="st0" points="400.8,384 416.9,323.8 461,279.8 444.8,339.9 "/>
<polygon class="st0" points="384.7,323.8 340.6,279.8 356.7,219.5 400.8,263.6 "/>
<polygon class="st0" points="416.9,323.8 400.8,263.6 444.8,219.5 461,279.8 "/>
<polygon class="st0" points="400.8,263.6 356.7,219.5 356.7,157.2 400.8,201.3 "/>
<polygon class="st0" points="400.8,263.6 400.8,201.3 444.8,157.2 444.8,219.5 "/>
<polygon class="st0" points="340.6,279.8 340.6,217.4 356.7,157.2 356.7,219.5 "/>
<polygon class="st0" points="461,279.8 444.8,219.5 444.8,157.2 461,217.4 "/>
<polygon class="st0" points="340.6,279.8 286.6,248.6 286.6,186.2 340.6,217.4 "/>
<polygon class="st0" points="340.6,217.4 316.8,159.8 332.9,99.7 356.7,157.2 "/>
<polygon class="st0" points="286.6,248.6 226.5,232.5 188.5,183 248.7,199.1 "/>
<polygon class="st0" points="340.6,217.4 286.6,186.2 262.8,128.7 316.8,159.8 "/>
<polygon class="st0" points="286.6,248.6 248.7,199.1 248.7,136.8 286.6,186.2 "/>
<polygon class="st0" points="400.8,201.3 356.7,157.2 400.8,113.2 444.8,157.2 "/>
<polygon class="st0" points="286.6,186.2 248.7,136.8 224.9,79.3 262.8,128.7 "/>
<polygon class="st0" points="248.7,199.1 224.9,141.5 224.9,79.3 248.7,136.8 "/>
<polygon class="st0" points="316.8,159.8 262.8,128.7 224.9,79.3 278.8,110.4 "/>
<polygon class="st0" points="248.4,199.3 188.3,182.8 164.8,125.1 224.9,141.5 "/>
<polygon class="st0" points="317.2,159.5 278.8,110.4 294.5,50.1 332.8,99.2 "/>
<polygon class="st0" points="400.8,384 444.8,339.9 505,323.8 461,367.9 "/>
<polygon class="st0" points="400.8,384 461,367.9 521.2,384 461,400.1 "/>
<polygon class="st0" points="444.8,339.9 461,279.8 521.2,263.6 505,323.8 "/>
<polygon class="st0" points="461,367.9 505,323.8 565.3,339.9 521.2,384 "/>
<polygon class="st0" points="505,323.8 521.2,263.6 575.1,232.5 559,292.6 "/>
<polygon class="st0" points="505,323.8 559,292.6 619.2,308.8 565.3,339.9 "/>
<polygon class="st0" points="461,279.8 514.9,248.6 575.1,232.5 521.2,263.6 "/>
<polygon class="st0" points="521.2,384 565.3,339.9 619.2,308.8 575.1,352.8 "/>
<polygon class="st0" points="461,279.8 461,217.4 514.9,186.2 514.9,248.6 "/>
<polygon class="st0" points="514.9,248.6 552.9,199.1 613,183 575.1,232.5 "/>
<polygon class="st0" points="461,217.4 444.8,157.2 468.7,99.7 484.8,159.8 "/>
<polygon class="st0" points="514.9,248.6 514.9,186.2 552.9,136.8 552.9,199.1 "/>
<polygon class="st0" points="461,217.4 484.8,159.8 538.8,128.7 514.9,186.2 "/>
<polygon class="st0" points="559,292.6 575.1,232.5 635.3,248.6 619.2,308.8 "/>
<polygon class="st0" points="514.9,186.2 538.8,128.7 576.7,79.3 552.9,136.8 "/>
<polygon class="st0" points="484.8,159.8 522.7,110.4 576.7,79.3 538.8,128.7 "/>
<polygon class="st0" points="552.9,199.1 552.9,136.8 576.7,79.3 576.7,141.5 "/>
<polygon class="st0" points="484.5,159.6 468.8,99.3 507,50.1 522.7,110.4 "/>
<polygon class="st0" points="553.4,199.3 576.7,141.5 636.8,124.9 613.5,182.7 "/>
<polygon class="st0" points="400.8,384 461,400.1 505,444.2 444.8,428 "/>
<polygon class="st0" points="400.8,384 444.8,428 461,488.2 416.9,444.2 "/>
<polygon class="st0" points="461,400.1 521.2,384 565.3,428 505,444.2 "/>
<polygon class="st0" points="444.8,428 505,444.2 521.2,504.4 461,488.2 "/>
<polygon class="st0" points="505,444.2 565.3,428 619.2,459.2 559,475.3 "/>
<polygon class="st0" points="505,444.2 559,475.3 575.1,535.5 521.2,504.4 "/>
<polygon class="st0" points="521.2,384 575.1,415.2 619.2,459.2 565.3,428 "/>
<polygon class="st0" points="461,488.2 521.2,504.4 575.1,535.5 514.9,519.4 "/>
<polygon class="st0" points="521.2,384 575.1,352.8 629.1,384 575.1,415.2 "/>
<polygon class="st0" points="575.1,415.2 636.9,423.3 680.9,467.3 619.2,459.2 "/>
<polygon class="st0" points="575.1,352.8 619.2,308.8 680.9,300.7 636.9,344.7 "/>
<polygon class="st0" points="575.1,415.2 629.1,384 690.9,392.2 636.9,423.3 "/>
<polygon class="st0" points="575.1,352.8 636.9,344.7 690.9,375.8 629.1,384 "/>
<polygon class="st0" points="559,475.3 619.2,459.2 635.3,519.4 575.1,535.5 "/>
<polygon class="st0" points="629.1,384 690.9,375.8 752.7,384 690.9,392.2 "/>
<polygon class="st0" points="636.9,344.7 698.7,352.8 752.7,384 690.9,375.8 "/>
<polygon class="st0" points="636.9,423.3 690.9,392.2 752.7,384 698.7,415.2 "/>
<polygon class="st0" points="637,344.3 681.3,300.5 743,309 698.7,352.8 "/>
<polygon class="st0" points="637,423.8 698.7,415.2 743.2,458.8 681.4,467.5 "/>
</svg>
