<?xml version="1.0" encoding="UTF-8" standalone="no"?>
<!-- Created with Inkscape (http://www.inkscape.org/) -->
<svg
   xmlns:dc="http://purl.org/dc/elements/1.1/"
   xmlns:cc="http://creativecommons.org/ns#"
   xmlns:rdf="http://www.w3.org/1999/02/22-rdf-syntax-ns#"
   xmlns:svg="http://www.w3.org/2000/svg"
   xmlns="http://www.w3.org/2000/svg"
   xmlns:sodipodi="http://sodipodi.sourceforge.net/DTD/sodipodi-0.dtd"
   xmlns:inkscape="http://www.inkscape.org/namespaces/inkscape"
   id="svg2"
   sodipodi:version="0.32"
   inkscape:version="0.46"
   width="165.17456"
   height="500.8457"
   version="1.0"
   sodipodi:docname="pbg_IMG_5386_1_si_500pxl.svg"
   inkscape:output_extension="org.inkscape.output.svg.inkscape">
  <sodipodi:namedview
     inkscape:window-height="968"
     inkscape:window-width="1280"
     inkscape:pageshadow="2"
     inkscape:pageopacity="0.0"
     guidetolerance="10.0"
     gridtolerance="10.0"
     objecttolerance="10.0"
     borderopacity="1.0"
     bordercolor="#666666"
     pagecolor="#ffffff"
     id="base"
     showgrid="false"
     inkscape:zoom="1.5234233"
     inkscape:cx="82.58728"
     inkscape:cy="250.42285"
     inkscape:window-x="-4"
     inkscape:window-y="-4"
     inkscape:current-layer="svg2" />
  <metadata
     id="metadata7">
    <rdf:RDF>
      <cc:Work
         rdf:about="">
        <dc:format>image/svg+xml</dc:format>
        <dc:type
           rdf:resource="http://purl.org/dc/dcmitype/StillImage" />
      </cc:Work>
    </rdf:RDF>
  </metadata>
  <defs
     id="defs5">
    <inkscape:perspective
       id="perspective9"
       inkscape:persp3d-origin="372.04724 : 350.78739 : 1"
       inkscape:vp_z="744.09448 : 526.18109 : 1"
       inkscape:vp_y="0 : 1000 : 0"
       inkscape:vp_x="0 : 526.18109 : 1"
       sodipodi:type="inkscape:persp3d" />
  </defs>
  <path
     style="fill:#000000"
     d="M 107.00603,0.003019991 C 106.44743,0.037855988 106.13748,0.23480475 105.15095,0.084116921 C 105.15098,0.39876651 103.65448,0.83506799 103.06267,0.46932733 C 101.71559,0.56664689 102.15416,0.48545589 100.48788,1.1282399 C 98.423436,1.0261745 97.136756,1.7022277 95.966686,2.618396 C 95.223316,2.618396 95.097296,2.7331319 95.236816,3.2671715 C 95.372956,3.7877521 95.246736,3.9159501 94.598196,3.9159469 C 94.153656,3.9159469 93.294576,3.9871889 92.692416,4.0781407 C 91.704106,4.7301536 91.956156,5.0962738 91.435416,5.0411668 C 91.435416,5.3544248 90.014046,6.8354396 89.712106,6.8354363 C 89.387486,6.8354363 85.920856,10.375807 85.920816,10.707815 C 85.920816,10.882783 84.728376,12.023882 84.542176,12.02564 C 83.922626,12.013566 83.909456,12.472805 83.062156,13.850321 C 83.277966,14.642596 82.515046,15.658539 81.359116,16.121035 C 79.864926,16.718891 79.701786,17.215847 81.004306,17.215843 L 81.926796,17.215843 L 81.338846,18.918879 C 81.015236,19.855548 80.746546,21.425987 80.740766,22.416184 C 80.734896,23.406377 80.559536,24.391702 80.345406,24.605801 C 80.042656,24.908562 80.090596,25.001152 80.548146,25.001149 C 81.066096,25.001149 81.105936,25.185443 80.902966,26.54199 C 80.610176,28.498136 80.606186,28.499466 79.260716,28.751881 C 78.095486,28.970483 77.383716,29.54258 78.277436,29.542577 C 79.005356,29.542577 78.904086,30.102986 78.094966,30.536014 C 77.565246,30.819513 77.503676,30.972127 77.831406,31.174652 C 78.174406,31.38664 78.174506,31.535829 77.851676,31.924799 C 77.524656,32.318829 77.565956,32.533649 78.034146,33.08043 C 78.351656,33.451247 78.770926,33.75962 78.976876,33.759617 C 80.229406,35.192489 78.590856,37.199515 80.179776,36.231406 C 81.470646,35.666011 79.210606,39.874971 81.142816,38.786793 C 80.343326,38.995864 81.526076,41.246764 82.038326,42.203835 C 82.504276,43.07452 84.637996,44.178999 84.623266,43.541934 C 85.137586,44.721301 83.580526,42.620851 85.495066,45.70114 C 85.788466,46.173176 86.498816,47.67271 86.701396,48.164459 C 87.361846,49.767787 87.344976,50.886257 87.481936,51.175182 C 87.513796,52.062286 87.439216,52.276235 87.218376,51.925329 C 86.796956,51.255819 87.141326,53.61451 87.735346,55.47332 C 88.271886,57.152185 88.162696,57.279579 85.951216,57.58184 C 83.592626,57.90421 82.620366,58.133523 82.808746,58.321849 C 82.904886,58.417972 82.699556,58.853806 82.352556,59.295012 C 81.878176,59.898062 81.796656,60.252654 82.038326,60.704072 C 82.290236,61.174774 82.225756,61.372923 81.713936,61.646823 C 80.883856,62.091076 80.871916,62.63825 81.693626,62.85314 C 82.247066,62.997863 82.150656,63.164468 80.963756,64.110143 C 77.427926,66.927486 75.583266,68.587845 75.722886,68.813765 C 75.806866,68.949677 75.683466,69.128388 75.459316,69.219249 C 75.150436,69.344479 75.174666,69.472375 75.540416,69.726105 C 75.941906,70.004647 75.914696,70.052614 75.378216,70.030219 C 75.023636,70.015423 73.780646,70.157868 72.620926,70.344469 C 71.461236,70.531067 69.365366,70.780748 67.957846,70.90201 C 65.273636,71.133267 60.760076,72.430438 57.841006,73.811363 C 56.893086,74.259806 55.962516,74.632472 55.773036,74.632469 C 55.617846,74.632469 55.491406,74.722909 55.448646,74.845349 C 54.994606,74.919559 54.583636,74.992695 54.353836,75.068365 C 52.661026,75.271873 52.696476,75.525684 51.495176,76.234134 C 49.698486,77.19435 49.656086,78.329364 48.484436,78.504848 C 47.729876,78.853152 46.147836,79.757221 45.311536,80.562682 C 45.244746,80.506223 45.098996,80.471448 44.865496,80.471448 C 44.587336,80.471448 44.459236,80.61451 44.571536,80.795836 C 44.646996,80.917961 44.772176,80.988055 44.895926,80.988441 C 44.267166,81.630609 43.875726,81.998945 43.517276,82.914493 C 42.265046,83.542209 41.438766,84.44547 41.256686,85.012876 C 40.903236,85.994454 40.558706,86.167576 40.182156,86.310427 C 40.182156,86.132014 40.026386,85.986043 39.837486,85.986039 C 39.648536,85.986039 39.585346,86.132017 39.695566,86.310427 C 39.732806,86.370708 39.774296,86.424125 39.817216,86.472621 C 39.645616,86.554899 39.463216,86.665074 39.269816,86.878106 C 39.234806,86.918927 39.202206,86.966637 39.168436,87.009888 C 39.088836,87.020421 39.016986,87.039544 38.975856,87.080848 C 38.921936,87.134745 38.939096,87.181262 39.016396,87.21263 C 38.415046,88.085999 37.998826,89.319752 37.475556,90.284177 C 37.011326,91.126047 36.711596,92.232874 36.238796,93.234077 C 35.075706,95.041063 33.602786,97.285265 32.700956,99.022371 C 31.679396,100.71361 31.780576,104.09195 31.454076,105.78383 C 30.725346,108.03148 30.500316,111.05444 30.156526,113.52858 C 30.069656,115.21621 29.119106,117.29851 28.818426,119.35743 C 28.182536,122.23205 28.057186,124.30333 27.764166,126.52437 C 27.442766,128.61704 28.098256,130.27407 27.804716,132.40389 C 28.146426,134.67497 27.571546,136.36487 27.470206,137.75629 C 27.688716,139.7671 27.914586,141.76202 27.591856,142.98704 C 27.745906,143.31788 27.672786,143.30813 27.439786,143.75746 C 27.278856,144.06016 27.279406,144.47475 27.247196,144.7509 C 27.209176,144.81955 27.169986,144.87954 27.135706,144.92323 C 26.825846,145.31757 26.825326,145.85015 27.084996,146.37284 C 27.171906,147.75156 27.947546,148.19983 29.092146,148.04546 C 29.325606,148.14429 29.515146,148.19506 29.599006,148.16711 C 29.651716,148.14954 29.722176,148.04264 29.801746,147.88327 C 30.009196,147.82179 30.228286,147.74865 30.450526,147.66025 C 30.678826,149.8989 30.458856,150.62656 30.055186,151.82661 C 30.180796,153.03349 29.581516,154.88019 29.649706,155.65844 C 29.428736,156.79645 29.387956,157.93435 29.497636,159.32807 C 29.691846,160.33879 31.234046,160.69978 30.562016,161.95359 C 30.702536,163.36772 30.511246,164.83923 30.470796,165.85638 C 30.703056,166.38429 31.023036,168.54442 31.261496,169.98218 C 31.305766,171.36063 31.732306,171.70617 31.666976,172.87126 C 31.233306,173.41923 32.127086,176.30312 32.113006,177.41269 C 32.161506,178.22364 32.067176,178.31959 32.518496,179.25765 C 32.643156,179.69852 33.094796,179.4926 33.420716,179.71382 C 35.332266,186.02838 37.758196,187.80563 42.442716,186.41445 C 44.205696,185.89091 45.918596,185.74802 46.730726,186.05965 C 46.986056,186.15763 47.062736,186.71624 46.974016,188.71557 C 46.936616,188.6943 46.908686,188.67502 46.872646,188.65475 C 46.806736,188.82436 46.722976,188.75547 46.781396,188.60407 C 46.765116,188.59497 46.746756,188.59268 46.730726,188.58379 C 46.545956,188.85304 46.127046,189.5767 45.544706,190.65176 C 45.294536,190.70701 45.010206,191.10171 44.733736,191.57424 C 44.336296,191.49132 43.946606,191.44246 43.628776,191.44246 C 43.139786,191.44246 42.821756,191.54595 42.939446,191.73644 C 43.041886,191.90221 43.723526,192.01865 44.490446,192.02027 C 44.348786,192.28318 44.208876,192.53421 44.084956,192.76028 C 43.679086,193.6169 43.904726,194.62234 43.547676,195.24388 C 42.963416,196.55419 42.100156,197.10761 42.483266,197.26116 C 42.822346,197.31109 43.354896,198.17968 43.132036,199.63325 C 43.219066,200.32252 43.087656,201.2201 42.990146,202.08643 C 43.112316,203.47437 42.733036,204.35203 42.797526,204.89441 C 42.949636,206.13718 42.247696,206.67749 42.655606,206.59745 C 43.376466,206.81353 42.963976,208.6416 43.081366,209.45611 C 43.064276,209.68927 43.252486,210.88721 42.919176,211.79779 C 42.748676,212.60214 41.817456,213.71309 41.662176,214.36248 C 41.483566,215.89137 40.986796,216.85823 41.287116,217.0995 C 41.080126,217.5719 40.038606,218.21453 39.482676,219.68446 C 39.093216,220.36436 39.288006,221.60472 39.391456,222.35053 C 39.201726,223.34655 39.498476,223.96227 39.290086,224.71249 C 39.422016,225.78436 38.789686,226.61745 39.553656,227.65225 C 39.922806,227.19457 38.774896,228.7454 37.941836,229.98379 C 37.461446,230.9733 37.052296,231.33223 36.583496,232.10243 C 35.723246,233.01367 34.661816,234.27459 34.677716,234.49479 C 34.428426,234.18214 34.521196,235.70336 34.606736,237.74882 C 34.715086,238.59625 34.224346,239.23932 34.292476,240.25267 C 34.016516,242.43869 34.490506,243.78931 34.525646,243.81081 C 35.095136,243.9903 34.416026,245.24633 34.525646,246.68975 C 34.669706,247.10718 34.691506,247.51347 34.677716,247.88593 C 34.605536,247.86959 34.520226,247.85551 34.414116,247.85551 C 34.106206,247.85551 33.842056,248.00943 33.684246,248.20017 C 33.752176,248.29807 33.819416,248.39772 33.886986,248.49416 C 34.019276,248.69032 34.148706,248.89011 34.272226,249.09224 C 34.417356,249.12273 34.529536,249.12698 34.596616,249.10239 C 34.600866,249.19805 34.616826,249.2893 34.637166,249.37607 C 34.680566,249.45195 34.686116,249.59912 34.667566,249.78156 C 35.078176,250.5414 35.416996,251.33285 35.660996,252.14352 C 35.991386,253.48075 35.870486,254.68367 35.985386,256.13755 C 36.321326,257.55869 36.084556,259.46194 35.833316,261.13516 C 35.493126,262.60895 35.556966,263.50225 35.701546,265.09876 C 35.720746,265.95676 35.489296,266.92963 35.184536,267.83578 C 35.275336,267.97715 35.314426,268.14625 35.265636,268.29193 C 35.198226,268.49412 35.108886,268.55248 34.951396,268.46428 C 34.887886,268.62881 34.824016,268.78572 34.758816,268.94071 L 35.346736,268.85961 L 35.143986,271.08978 C 34.877276,274.10126 33.189326,285.70484 32.194106,291.32346 C 31.925476,292.83997 31.712906,294.46305 31.727796,294.93227 C 31.747426,295.55046 31.558406,295.84831 31.028356,296.00684 L 30.288326,296.2197 L 30.997926,296.56437 C 31.603326,296.86056 31.683686,297.11904 31.565606,298.37889 C 31.489896,299.18665 31.241376,300.06493 31.018196,300.33537 C 30.692876,300.7297 30.695886,300.86234 31.028356,300.974 C 31.298436,301.06486 31.390106,301.47255 31.281766,302.13978 C 31.190256,302.70311 31.039966,304.59919 30.957376,306.35682 C 30.836936,308.92081 30.696536,309.64125 30.227506,310.02646 C 29.680976,310.47528 29.682306,310.49912 30.217386,310.33057 C 30.722746,310.17139 30.780586,310.36278 30.714086,311.95251 C 30.672666,312.94267 30.545896,313.8071 30.430246,313.87856 C 30.314636,313.95002 30.283366,314.38117 30.369426,314.83145 C 30.534736,315.69627 30.182096,315.89116 29.568606,315.27748 C 29.157676,314.86658 28.046096,315.15593 28.321726,315.60187 C 28.418526,315.75848 28.912796,315.97527 29.426656,316.07833 C 30.222056,316.23741 30.358976,316.41132 30.328876,317.25424 C 30.290246,318.33367 30.141286,318.44532 29.548306,317.85231 C 29.271276,317.57528 29.153006,317.57058 29.152966,317.83204 C 29.152966,318.0341 29.453966,318.29319 29.822016,318.40984 C 30.474846,318.61702 30.492076,318.77656 30.349146,324.99899 C 30.249406,329.34147 30.356616,332.99025 30.693816,336.41335 C 30.966236,339.17876 31.211046,341.98906 31.231096,342.65782 C 31.251016,343.3269 31.363516,343.87427 31.484506,343.87427 C 31.605506,343.87427 31.807176,344.6808 31.930536,345.66856 C 32.132086,347.28151 31.749276,349.77544 31.139846,350.84861 C 31.038536,351.02702 30.931006,351.31903 30.896556,351.49738 C 30.570346,353.1877 29.591446,356.34763 28.990776,357.66075 C 28.582766,358.55282 28.155606,359.86688 28.037886,360.58024 C 27.660496,362.86776 27.550916,363.05785 26.618696,362.96248 C 26.143496,362.91388 25.561936,362.73609 25.331266,362.56711 C 25.063086,362.37096 24.790316,362.37822 24.570996,362.59754 C 24.330076,362.83846 24.571736,363.07134 25.392116,363.36796 C 26.060456,363.60966 26.557906,364.00775 26.557866,364.30058 C 26.557866,365.07982 24.989166,369.71513 24.104686,371.54863 C 23.672956,372.44349 23.389736,373.24599 23.476186,373.33276 C 23.562636,373.41925 23.513616,373.65491 23.364696,373.84974 C 22.969846,374.36542 22.772526,375.03074 22.878116,375.33988 C 22.728566,375.70488 22.580906,376.07582 22.442196,376.44484 C 20.710746,377.24423 18.805656,379.42824 17.627056,381.97971 C 17.007636,383.32069 16.501886,384.551 16.501846,384.70658 C 16.501846,384.86248 16.255836,385.55663 15.954446,386.24742 C 15.653056,386.93823 15.392216,387.5777 15.366496,387.66661 C 15.340706,387.75582 15.125276,388.53925 14.890066,389.4102 C 14.609896,390.44775 14.248616,391.05124 13.856046,391.15378 C 13.119526,391.34637 13.069176,391.88365 13.785106,391.88365 C 14.155356,391.88365 14.236876,392.04841 14.068946,392.45133 C 13.938926,392.76356 13.623106,393.89492 13.369466,394.96534 C 13.116016,396.03582 12.770066,397.35692 12.599046,397.90513 C 12.428156,398.45302 12.284846,399.28287 12.284806,399.75006 C 12.284806,400.21753 12.138866,400.69435 11.960426,400.80432 C 11.782006,400.91458 11.636066,401.43895 11.636036,401.9701 C 11.636036,402.50125 11.360566,404.13373 11.017656,405.59919 C 10.674806,407.06464 10.222936,409.11854 10.014096,410.16089 C 9.8052261,411.20325 9.3507561,412.33455 9.0105361,412.67489 C 8.6701861,413.01524 8.5381661,413.29324 8.7165461,413.29324 C 9.1457761,413.29324 9.1380561,414.48657 8.7063961,414.75299 C 8.5207761,414.86779 8.4524261,415.2325 8.5543461,415.55384 C 8.6563361,415.87517 8.6066761,416.48013 8.4428561,416.90206 C 8.1643761,417.61924 7.6257961,419.869 7.2871961,421.72732 C 6.7781961,424.52196 5.2850461,430.35328 5.0367861,430.52634 C 4.8736561,430.64023 4.8401761,430.8869 4.9556861,431.07378 C 5.1881461,431.44987 4.6346761,435.59269 4.1447261,437.16617 C 3.9728661,437.71795 3.7677161,438.73977 3.6783861,439.43688 C 3.5891061,440.13402 3.4358361,441.06894 3.3438761,441.51497 C 3.2518761,441.96101 3.0962361,442.83692 2.9992161,443.4613 C 2.9021861,444.08575 2.7465461,444.81591 2.6444261,445.08324 C 2.5423161,445.35086 2.4836961,445.75907 2.5227861,445.99561 C 2.5617461,446.23183 2.4678361,446.59648 2.3098861,446.80658 C 2.1519461,447.01636 1.9888061,448.25465 1.9449561,449.56388 C 1.8720961,451.73903 1.9689261,452.18512 3.1512561,454.75408 C 3.8627961,456.29976 4.5408361,457.79142 4.6515461,458.05875 C 5.5390061,460.20117 8.9311261,464.57469 10.358756,465.41833 C 10.870286,465.72046 11.462516,466.38192 11.676586,466.89831 C 12.010146,467.70364 11.962306,468.05485 11.352196,469.31098 C 10.795226,470.45743 10.729536,470.86749 11.027806,471.22688 C 11.326376,471.58662 11.280666,471.82849 10.825066,472.33181 C 10.257706,472.95875 10.262216,472.98058 11.200156,472.98058 C 11.720086,472.98058 12.418816,473.19085 12.771396,473.44692 C 11.998376,473.96539 11.225426,474.54335 10.480406,475.1702 C 8.6940361,475.46867 7.6324761,476.10294 7.8853061,476.76174 C 7.9739861,476.99287 7.7317361,477.5996 7.2871961,478.30258 C 7.2840461,478.30615 7.2801261,478.30898 7.2770761,478.31274 C 6.3773561,479.39379 5.6236061,480.06287 4.9151461,481.22207 C 4.2151461,482.36726 3.0854361,483.76777 2.3808361,484.91198 C 1.5926961,486.19202 1.9361261,487.89671 1.8841261,489.15942 C 1.8648561,489.17386 1.8419561,489.1854 1.8233061,489.19997 C 0.54401614,491.00399 2.3301661,491.40405 0.52575614,492.90003 C -0.19425386,493.42878 -0.18183386,493.61038 0.60685614,494.61322 C 0.96124614,495.06376 1.1713561,495.56961 1.0731561,495.72827 C 0.97499614,495.88709 1.1185761,496.23967 1.3975461,496.519 C 1.6765561,496.798 1.9044361,497.23697 1.9044061,497.49216 C 1.9044061,497.74703 2.1098061,497.95844 2.3605861,497.95844 C 2.8209261,497.95844 5.4969361,499.24389 5.7970561,499.6108 C 5.8862661,499.71986 6.6567761,499.91229 7.5000861,500.03656 C 8.3434061,500.16083 9.1254661,500.4231 9.2436761,500.61439 C 9.3873161,500.84675 10.764046,500.90375 13.389776,500.78671 C 16.719286,500.6383 17.980666,500.41198 21.692056,499.30669 C 27.183196,497.67142 28.323056,497.24621 29.082026,496.55955 C 29.415916,496.25738 29.866556,496.01211 30.075436,496.01211 C 30.284436,496.01211 30.450556,495.85485 30.450526,495.66748 C 30.450526,495.47976 30.873496,495.17639 31.383136,494.9984 C 31.892816,494.82076 32.480016,494.35702 32.690836,493.96445 C 33.056586,493.28271 34.413246,492.44385 35.143986,492.44385 C 35.333136,492.44385 35.663886,492.16182 35.873866,491.8255 C 36.097946,491.46676 36.961076,491.0555 37.972266,490.82191 C 38.920216,490.60324 40.180016,490.14553 40.770106,489.8082 C 41.360136,489.47119 42.144306,489.19997 42.513686,489.19997 C 43.248326,489.19997 46.994326,485.50331 46.994296,484.78019 C 46.994296,484.54254 47.427676,483.66922 47.957306,482.83386 C 48.486966,481.99876 48.842036,481.19194 48.748036,481.03961 C 48.653866,480.88731 48.721886,480.76589 48.889916,480.76589 C 49.315876,480.76589 49.600456,479.02772 49.214306,478.78917 C 49.039206,478.68095 49.283856,478.13082 49.761746,477.56256 C 50.585206,476.58398 50.592726,476.54885 49.944176,476.54885 C 49.571486,476.54885 49.265036,476.40317 49.265006,476.22446 C 49.265006,476.04605 49.411016,475.90007 49.589396,475.90007 C 49.767806,475.90007 49.913816,475.50458 49.913786,475.02831 C 49.913786,474.55169 50.169276,473.87855 50.481466,473.52802 C 51.039316,472.90156 51.022506,472.88992 49.508296,473.11238 C 48.231376,473.29994 47.967486,473.25806 47.967456,472.8387 C 47.967456,472.49987 48.270206,472.33181 48.879796,472.33181 C 49.135256,469.60085 48.086926,470.33115 48.271576,468.31751 C 47.044056,468.12336 47.865406,469.91486 46.700306,467.51669 C 46.631726,467.20295 47.240566,467.49039 47.318686,466.55368 C 47.318686,466.41095 47.501186,466.09451 47.724166,465.85421 C 48.048556,465.50471 48.048586,465.46831 47.724166,465.65146 C 47.183606,465.95665 47.191166,465.0434 47.734316,464.48571 C 48.213086,463.99397 49.265036,460.8816 49.265006,459.9544 C 49.265006,459.60906 49.589626,459.20822 49.994876,459.05222 C 50.607746,458.81587 50.641616,458.73555 50.197626,458.55548 C 49.752986,458.37516 49.721516,458.12664 49.984726,456.98425 C 50.156976,456.23686 50.429006,454.45817 50.592956,453.03074 C 50.756936,451.60343 51.093156,448.83021 51.332976,446.86737 C 51.572736,444.90483 51.697596,443.17243 51.616816,443.02542 C 51.536046,442.87841 51.814986,442.38219 52.235196,441.92046 C 52.789836,441.31136 52.853386,441.14027 52.458186,441.28184 C 51.994986,441.44776 51.931376,441.29728 52.073006,440.27828 C 52.164486,439.6198 52.327256,438.86317 52.427786,438.59548 C 52.528316,438.32786 52.578726,437.77096 52.539276,437.36891 C 52.497106,436.93841 52.689116,436.55768 53.005616,436.4363 C 53.385086,436.29068 53.428106,436.15742 53.157666,435.99026 C 52.866166,435.81013 52.897246,434.76249 53.299576,431.5806 C 54.136436,424.9627 54.417546,421.85744 54.576856,417.37852 C 54.683746,414.37268 54.842566,413.12648 55.154686,412.92831 C 55.425066,412.75697 55.456956,412.64771 55.225636,412.64447 C 54.793226,412.63869 54.470196,410.07363 54.870846,409.82638 C 55.019286,409.73464 54.975726,409.46456 54.779596,409.22828 C 54.583506,408.99199 54.436916,408.16691 54.455216,407.39347 C 54.473506,406.61978 54.486126,404.68081 54.475486,403.07503 C 54.464786,401.46931 54.579326,399.35281 54.739056,398.37141 C 54.898846,397.39013 54.978056,393.63538 54.911396,390.03873 C 54.819596,385.09798 54.902736,383.1972 55.235786,382.25343 C 55.545936,381.3743 55.638026,379.84018 55.550016,377.08346 C 55.428246,373.26698 55.444986,373.14572 56.239346,372.28862 C 56.845396,371.63466 57.050346,371.05715 57.050316,370.02803 C 57.050316,369.26673 57.291436,367.84818 57.577446,366.88556 C 57.875876,365.88057 58.020106,364.59561 57.922106,363.86466 C 57.728416,362.42081 58.744106,357.98903 59.452826,357.19447 C 60.523076,355.99405 62.474886,351.31683 63.041336,348.57789 C 63.852076,344.65971 64.623146,342.32876 66.285206,338.82602 C 67.987796,335.23777 69.200576,331.93599 69.873786,329.03353 C 70.429356,326.63796 72.513036,319.82465 73.046686,318.65313 C 73.230546,318.24952 73.586596,317.92325 73.847536,317.92325 C 74.231346,317.92325 74.243966,317.82921 73.918476,317.43667 C 73.596126,317.04832 73.629766,316.63378 74.050276,315.34846 C 74.338786,314.46635 74.567286,313.58142 74.567246,313.38183 C 74.567246,313.18255 74.840056,312.40675 75.165326,311.65855 C 75.970586,309.80561 76.576996,308.25511 77.963166,304.56257 C 78.611426,302.83572 79.398846,301.08374 79.706756,300.66991 C 80.014756,300.25577 80.432606,299.5548 80.639366,299.10877 C 81.077026,298.16477 81.457666,297.28402 81.754486,296.53397 C 81.852676,295.35777 82.052656,293.92787 82.382946,293.0265 C 82.594676,291.66352 83.203036,290.66158 83.721046,289.46839 C 84.148856,288.41935 85.300756,287.30829 85.667376,286.24478 C 86.318326,281.74916 89.695616,278.39093 88.944616,278.93325 C 87.995136,279.8353 89.616336,277.86267 91.548906,281.27065 C 92.168876,281.82944 92.161836,283.336 92.537026,284.58217 C 92.780066,285.38937 93.448876,287.58191 93.285716,290.33242 C 93.625346,291.96101 93.464006,293.00629 93.665576,294.22271 C 93.673756,295.59081 93.521326,296.02251 94.030516,297.85176 C 94.327786,299.23803 94.368326,300.29839 94.395446,301.52143 C 94.624796,302.8243 94.223716,304.25622 94.091336,305.33299 C 94.054646,305.66448 94.011866,305.98021 93.959566,306.28584 C 94.220316,307.65917 94.304166,309.81356 93.959566,309.81356 C 93.753776,309.81356 93.844056,309.99661 94.162316,310.2292 C 94.659046,310.59245 94.783746,311.46275 95.023946,316.39257 C 95.177746,319.54896 95.397966,322.67226 95.520656,323.32635 C 95.711876,324.34564 95.672886,324.48451 95.216576,324.30967 C 94.923646,324.19727 94.679326,324.24833 94.679286,324.42116 C 94.679286,324.59396 94.974576,324.7354 95.328066,324.7354 C 95.765406,324.7354 96.026216,325.0206 96.159306,325.62746 C 96.266806,326.1181 96.433346,326.73878 96.524246,327.00611 C 97.085696,328.65861 97.608506,331.13787 97.923166,333.66621 C 98.122016,335.26408 98.556496,338.25455 98.896326,340.30601 C 99.236156,342.35776 99.612216,345.05842 99.727576,346.30718 C 99.950456,348.72062 101.0069,352.34656 102.11994,354.5284 C 102.97574,356.20587 103.0265,358.1244 102.22131,358.17776 C 101.70024,358.21231 101.70355,358.2308 102.24158,358.37038 C 102.68103,358.48424 102.80287,358.77616 102.72816,359.54629 C 102.64577,360.39544 102.47242,360.59672 101.73473,360.68164 C 101.24409,360.73809 100.84269,360.978 100.84266,361.21889 C 100.84266,361.45978 100.66022,361.72718 100.43717,361.80685 C 100.21416,361.88648 100.1582,362.07583 100.30538,362.2326 C 100.45508,362.39198 100.70642,362.26472 100.88321,361.94877 C 101.05711,361.63803 101.45163,361.39594 101.755,361.40136 C 102.25936,361.41038 102.25997,361.43279 101.77527,361.7156 C 101.4769,361.88986 101.14872,362.66524 101.02513,363.48961 C 100.90433,364.29516 100.62902,364.97209 100.4169,364.9899 C 100.20482,365.00768 100.39666,365.11933 100.84266,365.24331 C 101.54522,365.43879 101.69671,365.73057 101.92731,367.38226 C 102.15737,369.02934 102.0776,369.59569 101.35964,371.57903 C 100.78339,373.17089 100.47266,374.83001 100.34592,376.99225 C 100.2454,378.70738 99.965286,380.84571 99.727576,381.74654 C 99.489866,382.64772 99.374156,384.04142 99.464006,384.83837 C 99.579426,385.86227 99.411816,386.8486 98.906486,388.19374 C 97.878236,390.93018 97.555246,392.79041 97.781246,394.64095 C 97.902566,395.63426 97.794806,397.08038 97.497406,398.37141 C 96.450896,402.91514 95.858636,412.10472 95.672726,426.75533 C 95.629096,430.19336 95.469956,432.4268 95.246966,432.69572 C 94.985126,433.01118 94.989986,433.19365 95.267246,433.36473 C 95.775756,433.67903 95.869626,439.6551 95.368616,439.82209 C 94.860686,439.99139 94.923096,440.54181 95.449706,440.54181 C 95.785936,440.54181 95.909696,441.39187 95.986996,444.19117 C 96.071266,447.24447 96.089406,453.45809 96.027546,455.95023 C 96.018656,456.30705 96.043406,457.69381 96.078206,459.03191 L 96.139036,461.46482 C 96.038086,464.77672 95.753786,464.92474 96.382326,466.91862 C 96.694546,466.82023 96.950036,466.90185 96.950006,467.10106 C 96.950006,467.30029 96.735546,467.46599 96.473576,467.46599 C 96.165636,467.46599 96.068186,467.65028 96.199856,467.99312 C 96.368436,468.43241 96.226646,468.49265 95.378766,468.36821 C 94.815046,468.28549 94.354936,468.34232 94.354906,468.48986 C 94.354906,468.63736 94.537406,468.76802 94.760386,468.7737 C 92.909076,472.77002 98.881796,469.52121 95.003676,472.00742 C 95.003676,472.18583 94.748256,472.32947 94.435996,472.33181 C 94.017996,472.33534 94.082156,472.44907 94.679286,472.7576 C 95.295366,473.07556 95.472226,473.38782 95.399006,474.06527 C 95.322976,474.77065 95.424736,474.93408 95.885586,474.85597 C 96.699156,474.71807 96.882266,476.10736 96.078206,476.31571 C 95.755546,476.3993 96.074186,476.48517 96.787806,476.5083 C 97.663786,476.5371 97.941076,476.64185 97.639326,476.83269 C 97.389706,476.99079 97.300146,477.29118 97.436586,477.51189 C 97.627036,477.82003 97.734956,477.82262 97.933316,477.50177 C 98.132366,477.17965 98.308576,477.19814 98.713866,477.60311 C 98.998706,477.88802 99.517366,478.21111 99.869496,478.32286 C 100.22165,478.43464 100.47818,478.67466 100.43717,478.84999 C 100.35277,479.21116 103.61997,480.47219 103.90407,480.18809 C 104.00544,480.08672 104.08657,480.18812 104.08654,480.41111 C 104.08654,480.63412 104.26904,480.7498 104.49202,480.67467 C 104.71504,480.59957 105.37458,480.80786 105.95177,481.13082 C 106.52888,481.45411 107.21282,481.63593 107.47233,481.53631 C 107.73181,481.43675 108.20354,481.51075 108.52659,481.6985 C 109.09294,482.02795 109.09239,482.04381 108.52659,482.05332 C 108.20383,482.05874 108.03116,482.20948 108.14138,482.38783 C 108.25164,482.56624 108.71068,482.71221 109.15509,482.71221 C 110.19339,482.71221 111.5048,483.40024 112.50034,484.46595 C 112.93288,484.92892 113.4785,485.30732 113.7168,485.30732 C 113.95506,485.30732 114.40469,485.59939 114.71023,485.95609 C 115.01578,486.31292 115.38671,486.60487 115.54148,486.60487 C 115.69621,486.60487 116.0784,486.9081 116.38287,487.28407 C 116.68731,487.66007 117.41011,488.02695 117.99466,488.09504 C 118.6811,488.17497 119.45859,488.62502 120.18428,489.37232 C 121.03252,490.24576 121.46697,490.47728 121.97856,490.31508 C 122.43271,490.17089 122.58348,490.21634 122.43472,490.45697 C 122.31265,490.65452 122.38136,490.82191 122.58679,490.82191 C 123.23466,490.82191 124.42529,491.9367 124.26952,492.4033 C 124.18498,492.65703 124.2691,492.7659 124.46214,492.64659 C 124.64931,492.53091 125.03167,492.66865 125.31366,492.95073 C 125.78107,493.41818 125.96253,493.32975 125.86106,492.68714 C 125.77542,492.14473 126.4424,492.48657 126.63148,493.0825 C 126.75809,493.48137 127.31698,493.85188 128.1115,494.06578 C 128.81439,494.25506 129.38881,494.55318 129.38878,494.72471 C 129.38878,494.89625 129.70214,495.03895 130.0781,495.03895 C 130.52475,495.03895 130.69677,495.19381 130.58496,495.48498 C 130.46114,495.80755 130.82098,495.97815 131.88251,496.12364 C 134.47476,495.81809 132.7025,496.04264 135.87653,495.77897 C 136.85781,495.68672 138.09862,495.63209 138.63383,495.65733 C 139.16907,495.68257 140.77482,495.77265 142.20209,495.84992 C 145.36789,496.02168 147.14842,496.07164 149.33862,496.04254 C 150.8854,496.02197 153.2861,495.05007 152.69399,494.68416 C 152.4616,494.54053 152.8462,494.29428 153.65703,494.07594 C 154.41461,493.87196 155.16054,493.42525 155.36007,493.05207 C 155.55532,492.6872 156.14635,492.24013 156.66774,492.05867 C 157.6509,491.71595 157.86074,491.19362 157.26585,490.59892 C 157.02178,490.35485 157.08319,490.10255 157.45847,489.7271 C 157.75639,489.42925 157.82655,489.19997 157.62066,489.19997 C 157.41899,489.19997 157.33562,489.06165 157.43816,488.89589 C 157.54083,488.7298 157.47751,488.50133 157.29628,488.389 C 156.84813,488.112 156.88096,486.81747 157.34695,486.35146 C 157.63552,486.06288 157.60159,485.92586 157.20503,485.77366 C 156.91882,485.66385 156.7636,485.36694 156.86036,485.11473 C 156.99216,484.77133 156.80402,484.68229 156.11022,484.77007 C 155.60077,484.83449 155.43309,484.82732 155.74528,484.74979 C 156.4902,484.56479 156.4709,484.11094 155.69458,483.69553 C 155.29704,483.48276 155.03325,483.47345 154.96471,483.67526 C 154.90375,483.85487 154.5032,483.89136 154.04225,483.75635 C 153.04871,483.46535 152.9512,482.35591 153.88005,481.9114 C 154.39982,481.66266 154.1418,481.55662 152.5825,481.39442 C 151.51202,481.28293 151.00114,481.16385 151.44714,481.13082 C 153.00096,481.01683 153.1979,480.53622 151.78168,480.30973 C 150.77342,480.14851 150.45182,479.96027 150.49425,479.53931 C 150.59267,478.56385 150.49001,478.39734 150.01779,478.78917 C 149.65166,479.09309 149.51207,479.04008 149.34878,478.5256 C 149.23612,478.17069 148.83572,477.84144 148.45671,477.78561 C 148.07766,477.72965 147.70718,477.47595 147.62543,477.22805 C 147.53535,476.95482 147.61612,476.86772 147.83833,477.00503 C 148.03987,477.1296 148.2033,477.07234 148.20327,476.88339 C 148.20327,476.69447 147.93273,476.54885 147.59504,476.54885 C 147.25729,476.54885 146.89692,476.32995 146.79422,476.06227 C 146.69149,475.79465 146.30125,475.57568 145.93255,475.57568 C 145.37425,475.57568 145.32313,475.47113 145.59801,474.95734 C 145.8789,474.43254 145.83086,474.35784 145.28378,474.50118 C 144.54427,474.69452 144.3993,474.00733 145.04049,473.32528 C 145.37499,472.96923 145.23314,472.91999 144.22952,473.07183 C 143.30277,473.21203 143.0131,473.15309 143.01306,472.79815 C 143.01306,472.54175 143.24179,472.33181 143.51992,472.33181 C 143.79808,472.33181 143.94996,472.20277 143.85443,472.04797 C 143.75896,471.89349 143.31377,471.83994 142.86102,471.92632 C 142.20287,472.05219 142.07153,471.97115 142.23249,471.55127 C 142.36571,471.20411 142.26616,471.03426 141.92841,471.03426 C 141.60733,471.03426 141.48669,470.8536 141.60402,470.54767 C 141.70672,470.28006 142.00389,470.06109 142.26292,470.06109 C 142.52197,470.06109 142.63191,469.90312 142.51633,469.71646 C 142.40078,469.52949 141.99776,469.41971 141.61414,469.47317 C 141.18777,469.53221 140.91674,469.39574 140.9147,469.11836 C 140.91275,468.86871 140.61263,468.54802 140.25577,468.40876 C 139.89894,468.2695 139.7432,468.1474 139.91111,468.13507 C 140.07901,468.12252 139.93303,467.90028 139.58672,467.63834 C 139.01696,467.20739 139.01226,467.1611 139.52589,467.15176 C 139.83812,467.14608 140.09361,467.00316 140.09357,466.83752 C 140.09357,466.65259 139.69244,466.64584 139.05959,466.82737 C 138.49158,466.99028 137.95962,467.05545 137.87356,466.96929 C 137.78737,466.88313 137.88855,466.81722 138.09655,466.81722 C 138.30474,466.81722 138.47167,466.59832 138.47163,466.33063 C 138.47163,466.00625 138.79605,465.84405 139.4448,465.84405 C 139.98004,465.84405 140.41799,465.69837 140.41796,465.51967 C 140.41796,465.10383 139.6815,465.03964 137.98505,465.3068 C 137.80664,465.33489 137.58946,465.72241 137.49847,466.16844 C 137.27811,467.24898 136.39854,467.21002 136.27186,466.11777 C 136.18441,465.36331 136.30946,465.2454 137.38698,465.04324 C 138.05665,464.9176 138.8899,464.61041 139.24206,464.36407 C 139.83173,463.95099 139.8401,463.9035 139.32315,463.70514 C 139.01447,463.5867 138.83368,463.28129 138.92782,463.03609 C 139.05576,462.70271 138.89253,462.72536 138.27905,463.12731 C 137.65982,463.53308 137.56309,463.73495 137.88368,463.93828 C 138.2011,464.13956 138.16444,464.2083 137.73161,464.21199 C 137.41313,464.21472 136.79111,464.4522 136.35296,464.73912 C 135.61453,465.22298 135.5501,465.22168 135.3494,464.69858 C 135.07169,463.97487 136.13838,461.95477 136.8193,461.92101 C 137.19621,461.90232 137.21736,461.84471 136.9004,461.71826 C 136.59881,461.59801 136.69811,461.43627 137.22479,461.17086 C 137.74277,460.90982 137.95323,460.55598 137.88368,460.06593 C 137.82494,459.65152 137.98813,459.27147 138.26889,459.16371 C 138.53667,459.06098 138.6796,458.76627 138.58313,458.51493 C 138.48669,458.26357 138.64158,457.96591 138.92782,457.85601 C 139.49239,457.63941 139.6321,456.87522 139.14068,456.70041 C 138.96114,456.6365 139.02906,455.69938 139.30288,454.39927 C 139.65786,452.71358 139.7276,450.46211 139.60699,444.77916 C 139.52045,440.69907 139.38459,437.16344 139.30288,436.92288 C 138.97074,435.9455 138.6108,429.36967 138.63383,424.70767 C 138.65352,420.71588 138.74798,419.67804 139.13056,419.43637 C 139.5219,419.18883 139.49861,419.13634 138.99876,419.13222 C 138.45259,419.12778 138.41749,418.94271 138.59328,417.26699 C 138.70088,416.24112 138.94589,414.59903 139.14068,413.61763 C 139.52255,411.69408 139.65734,401.73576 139.33331,399.34457 C 138.70081,394.679 138.44886,390.8015 138.75547,390.49488 C 138.98005,390.27031 138.94819,390.03873 138.66422,389.75489 C 138.36485,389.45548 138.31752,388.88897 138.49191,387.76802 C 138.87787,385.28716 138.53382,383.47955 137.16393,380.69228 C 136.46247,379.26497 135.79647,377.68845 135.68394,377.19499 C 135.57135,376.70153 135.10245,375.99784 134.6398,375.63387 C 133.92661,375.07291 133.85767,374.87854 134.18365,374.3566 C 134.39509,374.018 134.44653,373.66948 134.29514,373.57605 C 133.60352,373.14861 133.33246,361.14704 133.92005,357.01197 C 134.12293,355.58467 134.3354,353.687 134.39651,352.79493 C 134.45763,351.90287 134.60188,350.29744 134.7209,349.22667 C 134.83989,348.15619 135.08522,345.96664 135.25815,344.36085 C 135.02463,338.82978 136.29178,340.13947 136.23132,336.49445 C 136.83964,335.38015 137.09078,333.99381 137.45792,332.12537 C 137.88955,330.73281 139.11593,323.883 139.16096,322.62688 C 139.18013,322.09164 139.40357,320.41322 139.64754,318.89642 C 139.89151,317.3799 140.31143,313.14677 140.59031,309.48917 C 140.96611,304.55777 141.27636,302.35264 141.77633,300.974 C 142.14711,299.95159 142.57225,299.19038 142.71907,299.28111 C 142.75067,299.30064 142.78914,299.29895 142.83059,299.29127 C 142.7665,298.80413 142.70146,298.29092 142.67852,297.70988 C 142.62623,297.66261 142.62921,297.61532 142.67852,297.5578 C 142.67054,297.2689 142.6647,296.96842 142.67852,296.64546 C 142.99328,295.07912 142.36653,293.64997 142.61773,292.20541 C 142.7989,291.15134 143.10331,289.41947 143.09416,287.87684 C 142.86336,286.55636 143.13506,285.03027 143.41855,283.42666 C 143.74641,281.91061 144.54505,281.13821 144.5032,279.38197 C 144.70341,277.92307 144.73699,276.04347 145.05064,274.56682 C 145.40412,273.14766 145.09112,271.51343 145.78051,270.06594 C 145.99123,268.28577 146.8194,266.62789 147.07806,265.1697 C 147.50794,263.81165 147.26358,262.7534 147.53422,261.12501 C 147.86707,259.43861 147.84459,258.16341 148.24381,256.71535 C 148.66633,255.10236 148.67609,253.3349 148.8622,251.74816 C 148.79197,249.69281 149.1302,248.905 149.30823,247.16618 C 148.95552,245.47343 149.98484,244.13919 149.9874,242.39162 C 150.21295,240.93401 149.60608,239.26429 149.2778,237.5258 C 149.47503,235.91093 148.9683,233.79927 148.7811,232.10243 C 148.44039,229.45244 148.51607,227.02355 148.91286,224.68206 C 148.89648,224.62425 148.87838,224.5554 148.8622,224.49959 C 148.68041,223.87633 148.52769,223.34866 148.52765,223.32369 C 148.52765,223.29872 148.81964,223.19399 149.17643,223.10067 C 149.19498,223.09582 149.20935,223.08572 149.22713,223.0804 C 149.34375,222.58203 149.4785,222.09415 149.62246,221.60038 C 149.52009,221.31651 149.37255,220.99138 149.17643,220.60694 C 148.8196,219.9075 148.52769,219.10768 148.52765,218.83295 C 148.52765,218.55822 148.25442,218.33622 147.91943,218.33623 C 147.58446,218.33623 147.16763,218.15375 146.99697,217.93074 C 146.54393,217.33918 145.98903,214.43736 145.57777,210.55092 C 145.3795,208.67758 145.13524,207.07186 145.04049,206.98266 C 144.94576,206.89345 144.96286,209.06744 145.07088,211.81806 C 145.27719,217.07133 144.97249,217.89384 144.34101,213.7948 C 143.60909,209.04265 143.36713,207.88989 142.99279,207.43883 C 142.72163,207.11212 142.71382,206.85661 142.96236,206.5569 C 143.22054,206.24586 143.14811,206.03915 142.67852,205.74593 C 142.33078,205.52875 142.03993,205.18981 142.0399,204.99578 C 142.0399,204.80175 141.5505,203.59595 140.94509,202.31958 C 139.43114,199.12764 138.14728,194.78223 138.14725,192.82111 C 138.14725,191.2749 139.74427,185.89764 140.45851,185.0358 C 140.62722,184.83219 141.23042,184.60191 141.79661,184.51881 C 142.56797,184.4056 142.97018,184.5338 143.39827,185.04594 C 143.79292,185.51806 143.96877,185.58742 143.97607,185.26896 C 144.00793,183.909 145.87877,183.20689 147.33147,184.01195 C 147.72119,184.22792 148.77098,184.44204 149.66301,184.4884 C 154.71681,184.75099 154.64489,184.77833 155.34995,182.57248 C 155.59311,181.81167 155.9792,180.90188 156.20147,180.54506 C 156.62418,179.86652 157.27749,177.55448 157.43816,176.16582 C 157.48984,175.71979 157.56766,175.35485 157.61051,175.35486 C 157.82545,175.35486 157.80848,171.6643 157.59024,170.89452 C 157.44952,170.39816 157.47294,169.92383 157.64091,169.81999 C 157.80618,169.71785 157.93493,169.20164 157.9349,168.6745 C 157.9349,167.8131 158.43634,166.53886 158.93846,166.10981 C 159.04288,166.0206 159.29045,165.36371 159.48589,164.65006 C 159.9401,162.98975 161.75372,156.81439 162.13166,155.6483 C 162.31034,155.09696 162.30618,154.68401 162.11139,154.56363 C 161.74172,154.33518 162.02377,152.79967 162.66891,151.56304 C 162.91863,151.08443 163.12403,150.44593 163.1251,150.13371 C 163.1262,149.82149 163.26498,149.56603 163.42921,149.56603 C 163.59345,149.56603 163.82218,149.09161 163.94622,148.51177 C 164.0702,147.93193 164.3267,147.26364 164.5139,147.03175 C 165.02961,146.39225 165.04655,144.64397 164.5443,143.65609 C 164.23866,143.05494 164.13573,141.92298 164.20976,140.08783 C 164.26954,138.60954 164.18478,137.13259 164.02732,136.81354 C 163.67559,136.10155 163.49633,130.75154 163.82458,130.75154 C 163.9544,130.75154 164.15824,130.07843 164.28073,129.26139 C 164.4185,128.34258 164.70513,127.70362 165.03088,127.57863 C 165.383,127.44349 165.08875,127.25239 164.13881,127.02109 L 163.13525,126.77779 C 163.13441,126.72263 163.13159,126.66648 163.13525,126.60546 C 163.23267,126.23155 163.83068,124.10637 163.66238,123.37172 C 163.60747,122.75043 163.55829,121.79888 163.338,121.0706 C 163.29628,120.2464 163.12445,119.16823 162.85142,118.36399 C 162.75254,117.7763 162.7227,116.45337 162.53715,115.64724 C 161.8463,114.60468 161.75275,114.06653 161.85795,113.35625 C 161.85156,113.34918 161.84348,113.34332 161.8377,113.33598 C 161.98131,112.98103 162.05589,112.488 162.07084,111.63294 C 162.07107,111.62079 162.07065,111.6047 162.07084,111.59239 C 162.08119,110.92188 162.06091,110.03873 162.01002,108.82496 C 161.8921,106.01246 161.63801,103.14432 161.33082,100.71527 C 161.3433,100.61429 161.33487,100.51615 161.31057,100.41116 C 161.29899,100.39386 161.29121,100.37764 161.28015,100.36047 C 160.98774,98.131917 160.66099,96.312909 160.34753,95.40342 C 160.24908,94.676688 159.83,93.844958 159.56699,93.305037 C 159.186,92.555672 158.90881,92.199611 158.19846,91.652687 C 158.89635,91.743214 159.23248,91.679092 159.23245,91.439808 C 159.23245,90.843006 158.22098,89.878695 157.60036,89.878692 C 157.29297,89.878692 156.83918,89.559589 156.58665,89.179231 L 156.13049,88.489907 L 155.94802,88.581141 C 155.68608,88.250755 155.37798,87.967166 154.94446,87.851269 C 154.44231,87.443056 153.65823,86.800661 153.17045,86.705775 C 152.76909,86.460638 152.27436,86.233177 151.78168,86.016451 C 151.88497,85.806024 151.82282,85.684223 151.61949,85.570418 C 151.40163,85.448496 151.09583,85.455584 150.72742,85.56028 C 149.62016,84.975491 149.40155,85.134972 148.28436,85.012876 C 148.14987,84.800925 147.38558,84.399154 146.62188,84.201907 C 146.19222,84.13833 146.09841,83.919683 145.62844,83.989027 C 145.63554,83.982069 145.64158,83.975718 145.64871,83.968753 C 145.54205,83.544911 145.33302,83.692472 143.3273,83.360526 C 142.97949,83.256917 142.9066,83.132809 142.61773,82.975316 C 141.86937,83.018625 141.34396,82.814274 141.02619,82.762436 C 140.89549,82.716685 140.76249,82.622158 140.63086,82.529283 C 140.79078,82.494411 140.94259,82.457541 141.06674,82.417774 L 141.87771,82.154209 L 141.02619,82.123798 C 140.48543,82.10343 139.811,81.691393 139.21166,81.008715 C 138.67379,80.396167 137.80765,79.827746 137.22479,79.711164 C 136.65756,79.597716 135.79592,79.206907 135.2987,78.839372 C 134.78309,78.458168 133.4229,78.018457 132.13592,77.815524 C 129.93755,77.468867 129.83011,77.407038 127.86821,75.342067 C 125.34123,72.369978 125.69725,73.068087 125.24268,71.023656 C 124.68075,71.324389 124.52183,71.215434 124.03638,70.192412 C 123.66145,69.402308 123.53342,68.552237 123.64105,67.597311 C 123.76367,66.509483 123.67089,66.110551 123.26596,65.874001 C 123.21792,65.119602 123.24478,65.291482 123.5498,64.546039 L 123.95528,63.441093 L 124.53312,61.210927 C 124.85222,59.98721 125.25923,58.842631 125.4353,58.666511 C 125.56863,57.847046 125.83647,57.922515 125.67859,57.145944 C 124.93588,57.024088 124.75373,56.67466 124.52296,56.487031 C 124.52296,56.678187 124.30072,56.609325 124.02623,56.334975 C 123.57741,55.886139 123.61812,55.735976 124.43171,54.814407 C 124.92906,54.251101 125.29747,53.663081 125.25284,53.506719 C 125.20823,53.350361 125.31775,53.222883 125.49613,53.22288 C 125.67454,53.22288 125.82055,53.59322 125.82051,54.054123 C 125.82051,54.823824 126.43659,55.100202 126.49968,54.358237 C 126.5149,54.179824 126.66071,53.865807 126.82407,53.668913 C 127.2366,53.171841 127.05873,51.550853 126.61121,51.722587 C 126.41126,51.799314 126.07318,51.748414 125.85091,51.611078 C 126.76409,50.785599 126.34219,50.747506 127.03697,50.151334 C 127.4384,50.012771 127.76687,49.677063 127.76684,49.411324 C 127.76684,49.145586 128.18799,48.398956 128.69945,47.748837 C 129.21095,47.098719 129.94737,45.952543 130.33155,45.194284 L 131.3351,41.808487 L 131.34526,40.135863 C 131.3509,37.487717 131.67062,36.033435 132.26772,36.010057 C 132.59117,35.997396 132.48331,35.853186 131.98388,35.64512 C 131.21122,35.323201 131.2036,35.291771 131.82169,35.036894 C 131.89276,34.232688 131.85302,34.786466 131.97373,34.185376 C 131.55196,34.385202 131.47352,34.154017 131.51757,32.766179 C 131.54641,31.857501 131.74059,30.951626 131.94333,30.748893 C 132.14607,30.546154 132.3083,29.996966 132.30827,29.522302 C 131.94557,28.139931 132.15354,27.858326 131.6291,25.87294 C 132.07847,22.737574 132.31956,22.60634 131.98388,20.540817 L 131.79129,19.486557 L 130.88907,17.29694 C 130.06831,14.736214 129.71771,14.323233 129.034,13.252231 C 128.6735,12.122457 128.80942,12.129107 127.96958,11.508647 C 127.39039,9.9933929 126.71339,9.4662856 125.65832,8.8628596 L 124.11748,7.3220179 C 123.83104,6.7051136 123.14626,6.1657866 122.03935,5.7913134 C 120.72562,4.005825 120.63745,4.745802 119.65715,3.5307365 C 119.65715,3.8363908 119.18824,3.6970468 118.11631,3.0745662 C 117.26884,2.5824214 116.50251,2.0819884 116.41327,1.9594834 C 116.32406,1.8369816 115.81319,1.5887764 115.27791,1.4120791 L 114.30475,1.0978285 L 113.06802,0.74302946 L 111.74004,0.56056137 C 111.0092,0.4603872 109.4268,0.27845111 108.22248,0.15507673 C 107.81223,0.052502094 107.50701,0.010889637 107.25947,0.003019991 C 107.1666,6.8062716e-05 107.08583,-0.0019561166 107.00603,0.003019991 z M 46.730726,188.58379 C 46.810266,188.4679 46.865966,188.41051 46.842256,188.48242 C 46.810626,188.52304 46.794956,188.56937 46.781396,188.60407 C 46.812836,188.62157 46.840116,188.63645 46.872646,188.65475 C 46.924676,188.52089 46.954196,188.23461 46.882806,187.712 L 45.686586,187.46871 C 45.154136,187.8095 45.495106,187.89826 46.730726,188.58379 z M 89.620886,5.325006 C 89.582086,5.3315262 89.533686,5.3481251 89.489086,5.3756916 C 89.310676,5.4859575 89.164726,5.6315427 89.164696,5.7102164 C 89.164696,5.7888934 89.310706,5.8622764 89.489086,5.8622732 C 89.667496,5.8622732 89.813506,5.7065509 89.813476,5.5176112 C 89.813476,5.3759025 89.737206,5.3054487 89.620886,5.325006 z M 93.361466,309.35741 C 93.348456,309.39202 93.339246,309.41901 93.320916,309.45878 C 93.234106,309.57163 93.122556,309.6913 92.996526,309.81356 C 93.017446,309.8157 93.035196,309.81356 93.057346,309.81356 C 93.235766,309.81356 93.381766,309.65785 93.381736,309.46893 C 93.381736,309.42258 93.376516,309.38787 93.361466,309.35741 z M 27.531036,315.97693 C 27.352616,315.97693 27.206676,316.12297 27.206646,316.30132 C 27.206646,316.47973 27.352656,316.6257 27.531036,316.6257 C 27.709446,316.6257 27.855456,316.48002 27.855416,316.30132 C 27.855416,316.1229 27.709476,315.97693 27.531036,315.97693 z M 73.776556,318.89642 C 73.498426,318.89642 73.269736,319.04246 73.269696,319.2208 C 73.269696,319.39922 73.405876,319.54519 73.573816,319.54519 C 73.741686,319.54519 73.970446,319.39951 74.080666,319.2208 C 74.190926,319.04239 74.054716,318.89642 73.776556,318.89642 z M 94.060906,318.93697 C 93.948246,318.9416 93.851126,318.96447 93.797376,319.01806 C 93.689546,319.12586 93.881196,319.20452 94.223106,319.19041 C 94.601016,319.17484 94.674516,319.10124 94.415726,318.99782 C 94.298616,318.95095 94.173796,318.93265 94.060906,318.93697 z M 71.130786,328.0908 C 71.091986,328.09732 71.043586,328.11415 70.998986,328.14147 C 70.820576,328.25173 70.674626,328.39734 70.674596,328.47601 C 70.674596,328.5547 70.820606,328.62805 70.998986,328.62805 C 71.177396,328.62805 71.323406,328.47234 71.323376,328.28342 C 71.323376,328.14169 71.247106,328.07124 71.130786,328.0908 z M 22.969326,366.58141 C 22.623016,366.58141 22.340866,366.72745 22.340826,366.9058 C 22.340826,367.08421 22.715526,367.23019 23.172076,367.23019 C 23.642886,367.23019 23.914306,367.09008 23.800576,366.9058 C 23.690316,366.72739 23.315586,366.58141 22.969326,366.58141 z M 22.533416,369.62255 C 22.446836,369.63581 22.318896,369.70922 22.178636,369.82529 C 21.911016,370.04743 21.692086,370.27012 21.692056,370.33218 C 21.692056,370.39391 21.911046,370.3639 22.178636,370.2612 C 22.446256,370.1585 22.665246,369.92549 22.665216,369.74419 C 22.665216,369.64928 22.620126,369.6096 22.533416,369.62255 z M 55.134386,407.17042 C 55.021726,407.17506 54.924596,407.19793 54.870846,407.25152 C 54.763026,407.35932 54.954676,407.43798 55.296576,407.42387 C 55.674486,407.4083 55.747996,407.33469 55.489196,407.23128 C 55.372096,407.18441 55.247266,407.16611 55.134386,407.17042 z M 55.752766,411.6713 C 55.574346,411.6713 55.428406,411.81692 55.428376,412.00585 C 55.428376,412.1948 55.574386,412.26837 55.752766,412.15789 C 55.931176,412.04763 56.077186,411.89169 56.077146,411.81326 C 56.077146,411.73453 55.931206,411.6713 55.752766,411.6713 z M 55.793316,415.56396 C 55.614896,415.56396 55.376476,415.71 55.266186,415.88834 C 55.155926,416.06676 55.219536,416.21273 55.397976,416.21273 C 55.576396,416.21273 55.804726,416.06705 55.914956,415.88834 C 56.025216,415.70993 55.971696,415.56396 55.793316,415.56396 z M 139.11026,460.01523 C 138.94359,460.05127 138.78882,460.21979 138.68453,460.49166 C 138.47588,461.03539 138.52162,461.05619 139.25221,460.77549 C 139.53336,460.66764 139.68543,460.44877 139.58672,460.28891 C 139.45064,460.06878 139.27696,459.97919 139.11026,460.01523 z M 139.85028,461.64732 C 139.68559,461.64732 139.4349,461.74837 139.12041,461.9514 C 138.72693,462.20569 138.77354,462.26168 139.3637,462.26567 C 139.76513,462.26839 140.09361,462.13011 140.09357,461.9514 C 140.09357,461.7482 140.01497,461.64699 139.85028,461.64732 z M 136.80915,463.31993 C 136.43581,463.36586 135.87657,463.68155 135.87653,463.92815 C 135.87653,464.33422 136.77337,464.28608 137.03216,463.86733 C 137.14979,463.67705 137.17451,463.4623 137.09299,463.38075 C 137.03641,463.32418 136.93358,463.30462 136.80915,463.31993 z"
     id="path2684"
     sodipodi:nodetypes="cccccssccssccscccsssssssssscccscsscssssssssssssssssscccccssccccsscscscccccccccccccsccsccccccccccccssccccccssccccccccccccccccccccccccscscccccccccsccccsscccssssssssssssssssssssssssssssssssssccsssssssssssssssssssssssssssssssssssssssccssssscccsssssssssssssssssssssssssssssssssccccsssssssssssssssssssssssssssssssssscsssssssssssccccccsccccccssssssssssssssssssssssssssssssssssssssssscccsssssccssssssssssssssssssssssssssssssssssssssssccsssssssssssssssssssssssssssssssssssssssssssssssssssssssssssssssssssssssssssssssssssssssssssssssssssscccssssscccccccccccccccccccsssccsssssssssssssssssssssssssssssssssssssssssscccccccccssscsccccssccccccsccccccccccccssssccsscccccccssssssssccsscccssccsscccccccccccsscccccscccccccccssssccccssccsssccsssccsssccssssccsssccssssccsssccsssccsssccsssccsssccsssc" />
</svg>
