<?xml version="1.0" encoding="UTF-8"?>
<!DOCTYPE svg PUBLIC "-//W3C//DTD SVG 1.1//EN" "http://www.w3.org/Graphics/SVG/1.1/DTD/svg11.dtd">
<svg version="1.1" xmlns="http://www.w3.org/2000/svg" xmlns:xlink="http://www.w3.org/1999/xlink" x="0" y="0" width="1796.099" height="1796.014" viewBox="0, 0, 1796.099, 1796.014">
  <g id="Iterations" transform="translate(-104.868, -388.946)">
    <g id="Iteration_1">
      <path d="M1679.483,1539.407 L1344.253,950.663 L666.77,946.609 L324.518,1531.299 L659.748,2120.043 L1337.231,2124.097 L1679.483,1539.407" fill-opacity="0" stroke="#FF2600" stroke-width="2"/>
      <path d="M751.19,1963.465 L1339.934,1628.235 L1343.988,950.752 L759.298,608.5 L170.554,943.73 L166.5,1621.213 L751.19,1963.465" fill-opacity="0" stroke="#FF2600" stroke-width="2"/>
      <path d="M327.5,1035.19 L662.73,1623.934 L1340.213,1627.988 L1682.465,1043.298 L1347.235,454.554 L669.752,450.5 L327.5,1035.19" fill-opacity="0" stroke="#FF2600" stroke-width="2"/>
      <path d="M1255.298,611.5 L666.554,946.73 L662.5,1624.213 L1247.19,1966.465 L1835.934,1631.235 L1839.988,953.752 L1255.298,611.5" fill-opacity="0" stroke="#FF2600" stroke-width="2"/>
    </g>
    <g id="Iteration_2">
      <path d="M1462.83,1843.75 L1466.884,1166.268 L882.194,824.016 L293.45,1159.246 L289.396,1836.729 L874.086,2178.981 L1462.83,1843.75" fill-opacity="0" stroke="#00F900" stroke-width="2"/>
      <path d="M446.876,1746.849 L1124.358,1750.903 L1466.61,1166.213 L1131.38,577.469 L453.898,573.415 L111.645,1158.105 L446.876,1746.849" fill-opacity="0" stroke="#00F900" stroke-width="2"/>
      <path d="M544.087,731.094 L540.033,1408.577 L1124.723,1750.829 L1713.467,1415.599 L1717.521,738.116 L1132.831,395.864 L544.087,731.094" fill-opacity="0" stroke="#00F900" stroke-width="2"/>
      <path d="M1559.429,828.067 L881.946,824.013 L539.694,1408.703 L874.924,1997.447 L1552.407,2001.501 L1894.659,1416.811 L1559.429,828.067" fill-opacity="0" stroke="#00F900" stroke-width="2"/>
    </g>
    <g id="Iteration_3">
      <path d="M1123.081,1999.056 L1465.333,1414.365 L1130.102,825.621 L452.62,821.567 L110.368,1406.257 L445.598,1995.001 L1123.081,1999.056" fill-opacity="0" stroke="#0433FF" stroke-width="2"/>
      <path d="M291.689,1407.159 L876.379,1749.411 L1465.124,1414.181 L1469.178,736.698 L884.487,394.446 L295.743,729.677 L291.689,1407.159" fill-opacity="0" stroke="#0433FF" stroke-width="2"/>
      <path d="M883.754,576.095 L541.502,1160.785 L876.732,1749.53 L1554.215,1753.584 L1896.467,1168.894 L1561.237,580.149 L883.754,576.095" fill-opacity="0" stroke="#0433FF" stroke-width="2"/>
      <path d="M1714.58,1167.747 L1129.889,825.495 L541.145,1160.725 L537.091,1838.208 L1121.781,2180.46 L1710.526,1845.23 L1714.58,1167.747" fill-opacity="0" stroke="#0433FF" stroke-width="2"/>
    </g>
  </g>
</svg>
