v 40.18431473 43.51156998 1.691746547e-006
vn 0.5526469946 0.7739994526 0.3090406954
v 22.32977676 23.68208122 91.06894684
vn 0.6094554663 0.6768693924 0.41280967
v 9.996232033 9.984282494 114.1143875
vn 0.4229190648 0.4696995914 0.7749333978
v -20.52548027 -23.91353798 41.76111221
vn -0.6323707104 -0.7023192644 0.3268867135
v -45.43198395 -18.2163887 7.657786369
vn -0.8824133277 -0.1811043769 0.4342210591
v -40.13537216 2.640329599 33.85083771
vn -0.9330151677 -0.2167410254 0.2872386873
v -8.215044975 -10.24141312 128.3003082
vn -0.5955831409 -0.6614626646 0.455793649
v 1.609215021 47.5 3.519839525
vn -0.04307539761 0.9708865881 0.2356348485
v -3.316075325 20.77264595 104.1752777
vn -0.176175043 0.8812704682 0.4385483563
v -21.78460884 37.99456024 19.60133362
vn -0.4950354099 0.8385213614 0.227644071
v -4.084005833 38.31480408 44.17347717
vn -0.08165600151 0.9665529728 0.2431206405
v -46.99999237 21.13652039 0.5367800593
vn -0.8511557579 0.4217872024 0.3124570847
v -26.76447678 21.04533768 72.16526794
vn -0.7141192555 0.6353515387 0.2938743234
v 31.96702385 34.3853302 55.51663589
vn 0.7317842245 0.6217625737 0.2791112959
v -14.60822964 5.750648975 115.4942932
vn -0.8873524666 0.2102168798 0.4103832543
v -33.23131561 -38.02482224 5.493460178
vn -0.5884431005 -0.6535327435 0.476056397
v -12.25608158 -48.08808899 7.657786369
vn -0.08787424862 -0.896510005 0.4342210889
v 7.932733059 -40.64036179 33.85083771
vn -0.1180262864 -0.9505596757 0.2872386873
v 48.18313599 5.564702034 3.519839525
vn 0.9720107913 0.0822711587 0.2200602144
v 22.11702919 -2.12740612 104.1752777
vn 0.8948581815 -0.08309134096 0.4385482967
v 41.17509842 -18.69456673 19.60133553
vn 0.8856735229 -0.4046734869 0.2276440859
v 39.64335632 -1.057464123 44.17347717
vn 0.9653883576 -0.03331388906 0.2586802244
v 27.0451622 -45.53398895 0.5367800593
vn 0.5084472895 -0.8024038076 0.3124570847
v 24.83927345 -25.41884995 72.16526794
vn 0.7065173388 -0.6437942982 0.2938743234
v 8.357686996 -14.92793751 115.4942932
vn 0.3018195927 -0.8605175614 0.4103832841
# mm_gid 0
g mmGroup0
f 12//12 5//5 6//6 
f 15//15 9//9 13//13 
f 12//12 13//13 10//10 
f 23//23 18//18 17//17 
f 25//25 24//24 20//20 
f 23//23 21//21 24//24 
f 2//2 9//9 3//3 
f 2//2 3//3 20//20 
f 7//7 3//3 9//9 
f 7//7 9//9 15//15 
f 5//5 16//16 4//4 
f 5//5 4//4 6//6 
f 13//13 12//12 6//6 
f 13//13 6//6 15//15 
f 11//11 14//14 1//1 
f 11//11 1//1 8//8 
f 7//7 15//15 6//6 
f 7//7 6//6 4//4 
f 11//11 9//9 2//2 
f 11//11 2//2 14//14 
f 11//11 10//10 13//13 
f 11//11 13//13 9//9 
f 10//10 11//11 8//8 
f 7//7 25//25 20//20 
f 7//7 20//20 3//3 
f 4//4 16//16 17//17 
f 4//4 17//17 18//18 
f 18//18 23//23 24//24 
f 18//18 24//24 25//25 
f 14//14 22//22 19//19 
f 14//14 19//19 1//1 
f 18//18 25//25 7//7 
f 18//18 7//7 4//4 
f 22//22 14//14 2//2 
f 22//22 2//2 20//20 
f 24//24 21//21 22//22 
f 24//24 22//22 20//20 
f 19//19 22//22 21//21 
