v 12.33463097 41.06306076 120.3534317
vn 0.417658031 -0.08877576143 0.9042569399
v -102.6323624 65.5 1.675376654
vn -0.9757157564 0.2073943615 -0.07047196478
v 63.63919449 30.1579628 110.1687622
vn 0.3458992243 -0.07352297753 0.9353865981
v 107.9839249 20.73223305 82.52483368
vn 0.6805500388 -0.1446550786 0.7182802558
v 35.6795578 36.10096359 119.510643
vn 0.1473645121 -0.03132323176 0.9885861278
v 2.739196062 21.23778152 110.7835464
vn 0.2724594772 -0.6592255831 0.7008476853
v 7.594222069 -56.01973724 19.08616638
vn -0.1449830979 -0.8981843591 0.4150238633
v -29.36621094 -39.9794426 35.46381378
vn -0.2277414352 -0.8853678703 0.4052869678
v 24.33845711 -31.72988129 78.7428894
vn -0.1133057252 -0.8666729927 0.4858392179
v 10.52737808 -24.0933094 85.18603516
vn -0.1740873903 -0.7530150414 0.6345564723
v -17.59033394 -15.69342136 83.90567017
vn -0.3071089089 -0.6638269424 0.6819221973
v -57.84589386 -4.023228168 82.54221344
vn -0.2665824592 -0.8984332085 0.3489291072
v -40.82553482 -25.64260674 63.75634003
vn -0.3796923459 -0.8169606328 0.43406111
v 24.47424507 -58.27542496 13.52694702
vn -0.008859490044 -0.9356735945 0.3527555168
v -17.63393593 -60.51355743 2.623316526
vn -0.2442672849 -0.868468225 0.4313889742
v -51.61956406 -43.29715729 6.575563431
vn -0.4276472628 -0.8310382366 0.3556589782
v -93.05767822 -2.622084379 39.40050507
vn -0.8168911934 -0.5649794936 0.1161331907
v -75.94361115 -28.88164711 0.9000077248
vn -0.7147703171 -0.6810209155 0.159103319
v -105.9999924 41.37569046 0.5594151616
vn -0.9621684551 -0.2721778154 0.01229280327
v 86.80410767 7.048670769 92.80426788
vn 0.4348587096 -0.4981595278 0.750156641
v 46.54201889 -16.38582039 93.4929657
vn 0.2314278781 -0.6401821375 0.7325353026
v 80.15760803 -31.91738319 59.37055969
vn 0.3864773214 -0.6923142672 0.6093736291
v 15.05651188 11.87705803 109.3544083
vn -0.06376560032 -0.3392124772 0.9385461211
v 11.01420403 -64.2580719 1.288056493
vn -0.1175671965 -0.9096230268 0.3984519243
v 48.01018524 -50.51489258 44.69982529
vn 0.05411223322 -0.8718448877 0.4867837131
v -25.75639153 -4.179854393 88.23040009
vn -0.04879478365 -0.7916243076 0.6090566516
v 24.09592438 -4.698056698 102.8607254
vn 0.1033297107 -0.480989933 0.8706156611
v 24.80066109 -67.14727783 -2.425220373e-006
vn -0.04136890173 -0.878937304 0.4751397669
# mm_gid 0
g mmGroup0
f 4//4 20//20 22//22 
f 20//20 4//4 3//3 
f 15//15 24//24 7//7 
f 22//22 20//20 21//21 
f 17//17 19//19 18//18 
f 12//12 17//17 13//13 
f 16//16 8//8 13//13 
f 15//15 8//8 16//16 
f 11//11 13//13 10//10 
f 5//5 1//1 6//6 
f 5//5 6//6 23//23 
f 5//5 23//23 27//27 
f 5//5 27//27 3//3 
f 9//9 10//10 13//13 
f 9//9 13//13 8//8 
f 25//25 22//22 21//21 
f 25//25 21//21 9//9 
f 25//25 9//9 7//7 
f 25//25 7//7 14//14 
f 7//7 24//24 28//28 
f 7//7 28//28 14//14 
f 9//9 21//21 27//27 
f 9//9 27//27 10//10 
f 2//2 19//19 17//17 
f 3//3 27//27 21//21 
f 3//3 21//21 20//20 
f 18//18 16//16 13//13 
f 18//18 13//13 17//17 
f 8//8 15//15 7//7 
f 8//8 7//7 9//9 
f 13//13 11//11 26//26 
f 13//13 26//26 12//12 
